<?xml version="1.0" encoding="utf-8"?>
<!-- Generator: Adobe Illustrator 19.2.1, SVG Export Plug-In . SVG Version: 6.00 Build 0)  -->
<svg version="1.1" id="Layer_2" xmlns="http://www.w3.org/2000/svg" xmlns:xlink="http://www.w3.org/1999/xlink" x="0px" y="0px"
	 viewBox="0 0 93 84.8" style="enable-background:new 0 0 93 84.8;" xml:space="preserve">
<style type="text/css">
	.st0{fill:#FFFFFF;}
</style>
<g>
	<g>
		<g>
			<path class="st0" d="M87.3,36c0.6,0.3,1,1,1,1.7c0,1.1-0.9,1.9-1.9,1.9c-0.1,0-0.2,0-0.2,0l-0.3,0v0c-0.2,0-0.3-0.1-0.4-0.2
				l-2.7,4.1l-0.2-0.1l2.7-4.1c-0.3-0.2-0.5-0.5-0.6-0.8l-0.1-0.2c0-0.2-0.1-0.3-0.1-0.5c0-0.1,0-0.2,0-0.3L83,37l0.1-0.2l0.1-0.2
				l1.3,0.4c0.1-0.3,0.4-0.6,0.6-0.8L85,36l0.2-0.1L84.3,34l0.2-0.1l1,2c0.2-0.1,0.5-0.1,0.7-0.1s0.5,0.1,0.7,0.1l3.1-6.3l0.2,0.1
				L87.3,36z"/>
			<path class="st0" d="M85.6,24.4l0.1-0.2L85.6,24l-0.3-0.2l0.2-0.2l-1.3-4.1c0,0-0.1,0-0.1,0v2.4h-0.3v-2.4
				c-0.2,0-0.5-0.1-0.7-0.3l-0.4,0.4l-0.2-0.2l-0.3,0.2l-0.2-0.2l0.7-0.5c0,0-0.1-0.1-0.1-0.1l-1.3,0.4L81.4,19l1.3-0.4
				c0-0.1,0-0.2,0-0.3c0-0.2,0-0.3,0.1-0.5l0.1-0.2c0.2-0.4,0.6-0.6,1.1-0.6c0.7,0,1.3,0.6,1.3,1.3c0,0.4-0.2,0.7-0.4,0.9l5.3,7.2
				c0.3-0.2,0.7-0.3,1-0.3c1.1,0,1.9,0.9,1.9,1.9s-0.9,1.9-1.9,1.9c-0.3,0-0.5-0.1-0.7-0.1l-0.2-0.1c-0.2-0.1-0.4-0.3-0.6-0.5
				l-0.1-0.2c-0.1-0.1-0.1-0.2-0.2-0.4l-4.2,1.1L85,29.8l-0.2-0.1l-0.1-0.2l0.2,0l0.9-2.7c-0.1,0-0.2-0.1-0.3-0.2l-0.2-0.2
				c-0.2-0.2-0.3-0.5-0.3-0.8c0-0.2,0-0.3,0.1-0.5l0.1-0.2c0,0,0.1-0.1,0.1-0.1l-0.6-0.6l0.2-0.2l0.6,0.6
				C85.5,24.5,85.6,24.5,85.6,24.4L85.6,24.4z M86,24.3C86,24.3,86,24.3,86,24.3L86,24.3L86,24.3z M89.3,26.9l-1.8-1.2
				c0,0.1,0,0.2-0.1,0.3L89.3,26.9z M89.3,27.2l-2-1c-0.2,0.3-0.6,0.6-1.1,0.6c-0.1,0-0.2,0-0.3,0l-0.8,2.6l4-1c0-0.1,0-0.2,0-0.3
				C89.2,27.7,89.2,27.5,89.3,27.2z M89.6,26.7c0.1-0.1,0.1-0.1,0.2-0.2l-5.3-7.2c0,0-0.1,0-0.1,0.1l1.5,4.4l0.6,0.4
				c0.5,0.1,0.8,0.4,1,0.8L89.6,26.7z"/>
			<path class="st0" d="M82.7,23.6C82.7,23.6,82.7,23.6,82.7,23.6L82.7,23.6L82.7,23.6z M85,23.7l0.7,0.5l-0.1,0.2L84.9,24l-0.2,0.2
				l0,0c-0.1,0.1-0.3,0.2-0.5,0.2l1,0.5l-0.1,0.2l-1.4-0.7c0,0,0,0,0,0l-0.2-0.1c-0.1-0.1-0.2-0.1-0.3-0.2l-0.8-0.4L82,23.7
				l-0.1-0.2l-0.3-0.2l0.1-0.2l0.6,0.3l0.3-0.1c0-0.1,0-0.1,0-0.2c0-0.1,0-0.2,0-0.3l0.1-0.2c0-0.1,0.1-0.2,0.2-0.3l-0.2-0.2
				l0.2-0.2l0.2,0.2L83,22l-0.1-0.1l0.3-0.2l0.1,0.1l0.2,0.1c0.1-0.1,0.2-0.1,0.4-0.1H84c0.6,0.1,1.1,0.6,1.1,1.3c0,0.1,0,0.1,0,0.2
				l0.4,0.3l-0.2,0.2l-0.3-0.2C85,23.6,85,23.7,85,23.7z"/>
			<path class="st0" d="M82.7,21.1l0.4,0.6l-0.3,0.2l-0.2,0.2l-0.4-0.4c-0.2,0.1-0.4,0.2-0.7,0.3v0.2h-0.3V22
				c-0.3,0-0.6-0.2-0.8-0.4l-0.1-0.2c0,0-0.1-0.1-0.1-0.1l-0.2-0.2l0.1-0.1c0,0,0,0,0-0.1v-0.3c0-0.4,0.3-0.7,0.6-0.9v0l0.2-0.1
				c0.1,0,0.2-0.1,0.3-0.1l-0.1-0.1l-0.1,0l-0.1-0.2l0.2-0.1l0,0.1l0.1,0l0.1,0.2l0.1,0.2c0.1,0,0.3,0,0.4,0.1l0.1-0.1l0.2,0.2
				c0,0,0,0,0,0l0.2-0.2l0.2,0.2l-0.2,0.2c0.2,0.2,0.3,0.5,0.3,0.8C82.8,20.8,82.7,21,82.7,21.1z"/>
			<path class="st0" d="M79.4,21.9l0.2-0.1l-0.1,0L79.4,21.9L79.4,21.9z M81.4,22.9v-0.5l-1.4-0.5l-0.2,0.1L81.4,22.9z M79.2,21.7
				l-0.8-0.3l0.7,0.4L79.2,21.7z M79.1,22.1L79,22.1l-0.2-0.2l-0.7-0.3c-0.3,0.5-0.9,0.8-1.5,0.8c-0.2,0-0.4,0-0.6-0.1l-0.2,0.3
				l-0.2-0.1l-1.2,1.8l-0.2-0.1l1.4-2.1c-0.1-0.1-0.2-0.2-0.3-0.3l-0.1-0.2c-0.1-0.2-0.2-0.5-0.2-0.7v-0.3c0-0.6,0.4-1.2,1-1.4
				l0.2-0.1c0.2-0.1,0.3-0.1,0.5-0.1c0.2,0,0.4,0,0.6,0.1l0.2,0.1c0.3,0.2,0.6,0.5,0.7,0.8l2.3-0.8l0.1,0.2l-2.3,0.8
				c0,0.1,0,0.2,0,0.3h1.8v0.3h-1.8c0,0.1,0,0.2,0,0.3l1.1,0.4l0.7-0.5l0.2,0.2l-0.6,0.4l0.1,0l0.5-0.3l0.1,0.2l-0.3,0.2l1.2,0.4
				h0.3v0.1l1.1,0.4l-0.1,0.2l-1-0.3V23l0.1,0.1l-0.1,0.2v0.2l0.3-0.1l0.1,0.2l-0.4,0.1v5.3h-0.3v-5.3l-5.8,1.5l-0.1-0.2l5.9-1.5
				v-0.4l-1.9-1l-1.2,0.8l-0.1-0.2L79.1,22.1L79.1,22.1z"/>
			<path class="st0" d="M83.2,48.1c0.2-0.1,0.5-0.1,0.7-0.1c0.1,0,0.2,0,0.2,0l1.6-8.4l0.3,0L84.4,48c0.8,0.2,1.4,1,1.4,1.9
				c0,1.1-0.9,1.9-1.9,1.9c-0.7,0-1.3-0.4-1.7-0.9L75.9,54l-0.1-0.2l6.3-3.2C82,50.4,82,50.1,82,49.9c0-0.1,0-0.1,0-0.2l0-0.3
				c0-0.1,0-0.1,0-0.2L81,48.8l0.1-0.2l-6-3.1l0.1-0.2l7,3.6c0.2-0.3,0.4-0.5,0.7-0.7l-0.7-1.4l0.2-0.1L83.2,48.1z"/>
			<path class="st0" d="M78.1,22.9l0.1,0.2L75.4,25c0,0.1,0.1,0.1,0.1,0.2l0.1,0.2c0,0.1,0,0.1,0,0.2c0,0.2-0.1,0.4-0.2,0.6l5.1,3.5
				l-0.1,0.2l-5.1-3.5c-0.2,0.3-0.6,0.5-1,0.5c-0.3,0-0.6-0.1-0.8-0.3l-0.2-0.2c0,0-0.1-0.1-0.1-0.1L73,26.1l0.1-0.1
				c0-0.1,0-0.2-0.1-0.2v-0.3c0-0.3,0.1-0.5,0.3-0.7l-0.9-0.9l0.2-0.2l0.9,0.9c0.2-0.1,0.4-0.2,0.7-0.3l0.1-0.1l0.2,0.1
				c0.1,0,0.2,0,0.3,0.1l0.9-1.9l0.2,0.1L75,24.5c0.1,0.1,0.2,0.1,0.3,0.2l3.6-2.8l0.2,0.2L78.1,22.9z"/>
			<path class="st0" d="M73.7,56.3l-1.2,2.5l-0.2-0.1l1.1-2.2l-0.2-0.1l0.2-0.3c0,0,0,0-0.1-0.1L73,55.8c-0.2-0.3-0.4-0.6-0.4-1
				v-0.3c0-0.1,0-0.2,0.1-0.3l0.1-0.2c0-0.1,0.1-0.1,0.1-0.2l0.1-0.2c0.1-0.1,0.2-0.2,0.3-0.3l0.2-0.1c0.2-0.1,0.5-0.2,0.8-0.2
				c0.6,0,1.2,0.3,1.5,0.8l0.1,0.2c0.1,0.2,0.1,0.4,0.1,0.7c0,0.9-0.8,1.7-1.7,1.7C74.1,56.4,73.9,56.4,73.7,56.3z"/>
			<path class="st0" d="M82.8,32.2c0-0.1,0.1-0.1,0.1-0.1l-0.6-0.6L82.8,32.2z M84.3,34c-0.1,0-0.2,0.1-0.3,0.1l1.2,1.8L85,36
				l-1.3-1.9c-0.2,0-0.3-0.1-0.5-0.1l-0.2-0.1c-0.1-0.1-0.2-0.2-0.3-0.3l-0.5,0.2l-0.1-0.2l-0.1-0.2l0.5-0.2c0-0.1,0-0.2,0-0.3
				c0-0.1,0-0.3,0.1-0.4l-0.6-0.9c-0.2,0.1-0.4,0.1-0.6,0.1c-0.2,0-0.3,0-0.4-0.1l-0.2-0.1c0,0-0.1-0.1-0.1-0.1l-0.2-0.2
				c-0.2-0.2-0.3-0.5-0.3-0.8c0-0.1,0-0.1,0-0.2l-7.2-1.8c-0.1,0.2-0.2,0.4-0.4,0.5l3.6,5.5l-0.2,0.1l-3.6-5.5
				c-0.2,0.1-0.4,0.1-0.6,0.1c-0.2,0-0.4-0.1-0.6-0.1l-3.4,5.2l-0.2-0.1l3.4-5.2c-0.3-0.2-0.5-0.6-0.5-1c0-0.3,0.1-0.6,0.3-0.8
				l0.2-0.2c0.1-0.1,0.2-0.1,0.3-0.2L71,25.8l0.2-0.1l0.4,1.1c0.1,0,0.2,0,0.3,0c0.2,0,0.4,0.1,0.6,0.1l0.5-0.8l0.2,0.1L72.7,27
				l0.6-0.6l0.2,0.2l-0.6,0.6c0.2,0.2,0.3,0.5,0.3,0.8c0,0.1,0,0.1,0,0.2l7.2,1.8c0-0.1,0-0.1,0.1-0.2l0.1-0.2
				c0.2-0.2,0.5-0.4,0.8-0.4h0.3c0.1,0,0.1,0,0.1,0l1.6-4.9l0.2,0.1L82,29.3c0.1,0,0.2,0.1,0.3,0.2l3-3.1l0.2,0.2l-3,3.1
				c0.1,0.1,0.2,0.2,0.2,0.4l2-0.5l0.1,0.2l-2,0.5c0,0.1,0,0.1,0,0.2c0,0.3-0.1,0.6-0.3,0.8l0.6,0.6c0.2-0.2,0.5-0.3,0.8-0.3
				c0.1,0,0.2,0,0.3,0l0.6-1.9l0.2,0.1l-0.6,1.9c0.2,0.1,0.3,0.2,0.5,0.3l4.6-3.1l0.1,0.2L85,32.2c0.1,0.2,0.2,0.4,0.2,0.6
				c0,0.5-0.2,0.8-0.6,1.1L84.3,34z"/>
			<path class="st0" d="M69.5,41.3c0.3,0,0.6,0.1,0.8,0.3l0.6-0.6l0.2,0.2l-0.6,0.6c0.2,0.2,0.3,0.5,0.3,0.8c0,0.2,0,0.3-0.1,0.5
				l-0.1,0.2c0,0-0.1,0.1-0.1,0.1l-0.2,0.2c-0.2,0.1-0.4,0.2-0.7,0.3v2.4h-0.3v-2.4c0,0-0.1,0-0.1,0L69,43.7
				c-0.4-0.2-0.7-0.6-0.7-1.2c0-0.1,0-0.1,0-0.2l0.1-0.2c0.1-0.1,0.1-0.3,0.2-0.4l0.2-0.2c0.1-0.1,0.2-0.1,0.3-0.2l-0.7-2.2l0.2-0.1
				l0.7,2.2C69.3,41.3,69.4,41.3,69.5,41.3z"/>
			<path class="st0" d="M70.8,25.4h0.2l-0.2-0.6L70.6,25C70.7,25.1,70.7,25.3,70.8,25.4z M69.6,24.3c0.3,0,0.6,0.2,0.8,0.4l0.2-0.1
				l0-0.1l0.2-0.1l1.3-0.9l0.2-0.2l0,0l2.8-1.9l0.1,0.2l-2.8,1.9l-0.2,0.2l0,0L71,24.7l0.2,0.7H73v0.3h-1.8L71,25.8l0-0.1h-0.2
				c0,0.3-0.1,0.5-0.3,0.7l0.6,0.6l-0.2,0.2l-0.6-0.6c-0.2,0.2-0.5,0.3-0.8,0.3c-0.1,0-0.1,0-0.2,0l-0.3-0.1
				c-0.5-0.2-0.8-0.6-0.8-1.2c0-0.1,0-0.2,0-0.3l-5.1-1.7l0.1-0.2l5.1,1.7c0,0,0,0,0-0.1l0.1-0.2c0.2-0.2,0.5-0.4,0.8-0.4H69.6z"/>
			<path class="st0" d="M70.6,46.7l0.5-0.7l-0.6,0.6C70.5,46.7,70.5,46.7,70.6,46.7L70.6,46.7z M73.8,44.2L73.7,44l-0.5,0.3l0.4,0.2
				C73.6,44.4,73.7,44.3,73.8,44.2z M74.9,44.3l1.6-1.7L76,42.4l-2.2,1.5l0.1,0.3c0.1,0,0.2-0.1,0.3-0.1
				C74.5,44.1,74.7,44.1,74.9,44.3z M68.4,38.8l2.3,0.8c0-0.1,0.1-0.2,0.2-0.3l-3-3.1c-0.1,0.1-0.2,0.1-0.3,0.2L68.4,38.8z
				 M72.8,45.2l0.4,0.2l0.2-0.1c0-0.1,0-0.1,0-0.2L72.8,45.2C72.8,45.2,72.8,45.2,72.8,45.2z M73.4,44.7l-0.5-0.2l-0.2,0.1
				c0,0.1,0.1,0.2,0.1,0.3h0.6C73.4,44.8,73.4,44.8,73.4,44.7z M79.8,38.5l-0.5-2.2v2.1C79.4,38.4,79.6,38.4,79.8,38.5z M80,38.5
				l1.3-1.9l-1.8-0.5c0,0,0,0,0,0L80,38.5z M81.4,36.3l0.1-0.1l-1.6-0.5c0,0.1-0.1,0.2-0.2,0.2L81.4,36.3z M72.3,41.3
				c-0.1,0-0.2,0.1-0.3,0.1v2.3l0.9,0.5l0.6-0.4L72.3,41.3z M72.7,44.3L72,44v0.1C72.3,44.1,72.4,44.2,72.7,44.3L72.7,44.3z
				 M72.6,41.2l1.2,2.4l2-1.4L73,40.8C72.9,41,72.7,41.1,72.6,41.2z M80.8,43.2c0,0,0.1,0,0.2-0.1l-0.5-1.9
				c-0.1,0.2-0.3,0.3-0.5,0.4L80.8,43.2z M71,43.2l0.7,0.4v-2.2c0,0-0.1,0-0.1,0L71,43.2z M71.1,39.1c0.2-0.2,0.5-0.3,0.8-0.3
				c0.3,0,0.6,0.1,0.8,0.3l3.3-3.3c-0.1-0.1-0.2-0.3-0.2-0.4h-7.4c0,0.3-0.1,0.5-0.3,0.7L71.1,39.1z M72.5,46l-1.7,0.9L70.7,47
				c0,0.1,0,0.1,0,0.2L72.5,46z M71.5,45.8l-0.4,0.7l1.8-0.9l-0.2-0.1c-0.2,0.3-0.5,0.5-0.8,0.5C71.8,45.9,71.6,45.9,71.5,45.8z
				 M71.4,44.3c0.1-0.1,0.3-0.1,0.4-0.2v-0.2L71,43.4l-0.1,0.3L71.4,44.3z M79.7,44.2l-3-1.5L75,44.4c0.1,0.1,0.2,0.3,0.2,0.4h4.3
				C79.6,44.6,79.6,44.4,79.7,44.2z M76.9,42.5l2.9,1.5c0.2-0.3,0.4-0.5,0.7-0.7l-0.8-1.6c-0.2,0.1-0.4,0.1-0.7,0.1
				c-0.4,0-0.8-0.2-1.1-0.4L76.9,42.5z M72.9,39.3l4.2-2.9L77,36.2c-0.1,0-0.2,0.1-0.3,0.1c-0.2,0-0.4-0.1-0.6-0.2L72.9,39.3z
				 M77.6,41c-0.1-0.2-0.2-0.5-0.2-0.7h-4.2c0,0.1,0,0.2-0.1,0.3l2.9,1.5L77.6,41z M77.4,40c0-0.6,0.4-1.1,0.9-1.4l-1-1.9L73,39.5
				c0.1,0.1,0.1,0.3,0.1,0.5H77.4z M70,46.3c0.1,0,0.2,0.1,0.3,0.2l0.9-0.9C71.1,45.4,71,45.2,71,45c0-0.2,0.1-0.4,0.2-0.6L70.8,44
				L70,46.3z M78.1,35.8l-0.6-0.1c-0.1,0.2-0.2,0.3-0.3,0.4l0.1,0.3L78.1,35.8z M77.8,41.3C77.8,41.3,77.7,41.2,77.8,41.3l-1.5,0.9
				l0.4,0.2L77.8,41.3z M78.2,35.1c0-0.1,0-0.2,0.1-0.3l-0.6,0.2c0,0,0,0,0,0H78.2z M77.7,35.4l0.5,0.1c0,0,0-0.1,0-0.1H77.7z
				 M79,36.2c-0.2,0-0.4-0.1-0.6-0.3l-0.9,0.6l1,2c0.2-0.1,0.3-0.1,0.5-0.1V36.2z M78.6,34.5c0.1-0.1,0.3-0.1,0.4-0.1l0.5-0.2
				l1.3-2.7l0.2,0.1l-1.2,2.5l2.3-0.8l0.1,0.2l-2.6,0.9l-0.1,0.1c0.1,0.1,0.2,0.1,0.2,0.2l2.4-1.2l0.1,0.2L80,35
				c0,0.1,0.1,0.2,0.1,0.3c0,0.1,0,0.1,0,0.2l1.6,0.6l1.4-2.2l0.2,0.1l-1.4,2.1l1.3,0.4l-0.1,0.2l-1.3-0.5l-0.1,0.1l1.4,0.4L83,37
				l-1.5-0.4l-1.4,2.1c0.2,0.2,0.4,0.4,0.5,0.7l3.7-1.3l0.1,0.2l-3.7,1.3c0,0.1,0.1,0.3,0.1,0.4c0,0.3-0.1,0.6-0.2,0.8l0.5,2.1
				c0.1,0,0.2,0,0.3,0c0.3,0,0.7,0.1,1,0.3l0.2,0.1c0.5,0.4,0.8,0.9,0.8,1.5c0,0.7-0.4,1.3-1,1.7v0l-0.2,0.1
				c-0.2,0.1-0.5,0.1-0.7,0.1c-1,0-1.9-0.8-1.9-1.8h-4.3c0,0.1,0,0.1,0,0.2l0,0l-0.1,0.2c-0.1,0.2-0.3,0.3-0.6,0.4l6.6,2.7L81,48.8
				l-7.6-3.1l-2.6,1.8L82,49.4l0,0.3l-11.2-1.9c-0.1,0.3-0.2,0.5-0.4,0.6l3.2,4.8l-0.2,0.1l-3.2-4.8c-0.1,0.1-0.3,0.1-0.5,0.1v2.7
				l3.3,2.2l-0.1,0.2l-3.2-2.1h-0.3v-0.2l-0.1-0.1l0.1-0.2v-2.2l-0.2-0.1l0.2-0.3c-0.1,0-0.1,0-0.2,0L69,48.7l-0.8,1.7L68,50.3
				l0.6-1.3l-0.1-0.2l0.4-0.3l0-0.1c0,0-0.1-0.1-0.1-0.1l-0.2-0.2c-0.2-0.2-0.3-0.5-0.3-0.8c0-0.5,0.2-0.8,0.6-1.1l-0.3-0.5l0.2-0.1
				l0.3,0.5c0.1,0,0.2-0.1,0.3-0.1h0.3c0,0,0.1,0,0.1,0l0.8-2.4l-0.3-0.3l0.2-0.2l0.2,0.2l0.1-0.2l-0.2-0.1l0.1-0.2l0.1,0.1l0.6-1.8
				c-0.1,0-0.2-0.1-0.3-0.2l-0.2-0.2c-0.2-0.2-0.3-0.5-0.3-0.8c0-0.1,0-0.2,0-0.3l-2.2-0.7l-0.2,0.1L68.2,39l-2.3-0.8l0.1-0.2
				l2.2,0.7l-0.7-2.2c-0.1,0-0.2,0-0.3,0c-0.3,0-0.6-0.1-0.8-0.3l0,0l-0.2-0.2l-0.8,0.5l-0.1-0.2l0.8-0.5c-0.1-0.2-0.2-0.4-0.2-0.6
				c0-0.3,0.1-0.6,0.3-0.8l0.2-0.2c0.2-0.2,0.5-0.3,0.8-0.3c0.1,0,0.1,0,0.2,0l1.8-7.3l0.3,0.1l-1.8,7.3c0.1,0,0.1,0,0.2,0.1
				l0.2,0.1c0.3,0.2,0.4,0.5,0.5,0.8h7.4c0-0.2,0.1-0.4,0.3-0.6l0.2-0.1c0.1-0.1,0.3-0.1,0.4-0.1c0.2,0,0.4,0.1,0.5,0.2l3.3-3.3
				l0.2,0.2l-3.3,3.3c0,0,0.1,0.1,0.1,0.1L78.6,34.5z"/>
			<path class="st0" d="M70.2,59c0.1,0.1,0.2,0.3,0.2,0.4h0.4v0.3h-0.4c-0.1,0.4-0.4,0.7-0.8,0.8v0.1l-0.3,0.1l0,0.1l-0.3,0L69,60.9
				l-0.2-0.1l-0.2,0.3L68.3,61l-0.5,0.5l-0.2-0.2l1.1-1.1c-0.1-0.2-0.2-0.3-0.2-0.6c0-0.4,0.2-0.7,0.5-0.8v0l0.2-0.1c0,0,0,0,0,0
				h0.3c0.2,0,0.3,0.1,0.4,0.2l0.7-0.7l0.2,0.2L70.2,59z"/>
			<path class="st0" d="M55.8,26.3l-3.8,1.3l-0.1-0.2l3.8-1.3c0-0.2-0.1-0.3-0.1-0.5s0-0.3,0.1-0.5l0.1-0.2c0.1-0.3,0.3-0.6,0.6-0.8
				l0.2-0.1c0.3-0.2,0.6-0.2,0.9-0.2c0.5,0,0.9,0.2,1.3,0.5l1.7-1.8l0.2,0.2L59,24.3c0.1,0.1,0.1,0.2,0.2,0.3l2.3-1.1l0.1,0.2
				l-2.3,1.1c0.1,0.2,0.2,0.5,0.2,0.8c0,0.5-0.2,0.9-0.5,1.3l7.4,7.5l-0.2,0.2L58.8,27c-0.3,0.3-0.8,0.5-1.3,0.5
				c-0.5,0-0.9-0.2-1.3-0.5L53,30.4l-0.2-0.2l3.3-3.3c0,0-0.1-0.1-0.1-0.1l-0.1-0.2C55.8,26.4,55.8,26.4,55.8,26.3z"/>
			<path class="st0" d="M61.4,20.3c0-0.1,0.1-0.1,0.1-0.2l-3.2-3.3l2.1,3.2L61.4,20.3z M63.2,22.7l1.3-0.4l-1.4-1
				c-0.1,0.2-0.3,0.3-0.6,0.3v0.6C62.8,22.2,63,22.4,63.2,22.7z M61,14.7l-2.2-2.3l-0.6,1.9l2.6,0.9C60.8,15,60.9,14.8,61,14.7z
				 M60.6,16h-1.8c0,0.3-0.1,0.5-0.3,0.7l3.3,3.3c0.1-0.1,0.3-0.2,0.4-0.2v-2.2C61.3,17.5,60.7,16.8,60.6,16z M58.8,15.7h1.8
				c0-0.1,0-0.2,0.1-0.3l-2.6-0.9l0,0.1C58.4,14.9,58.7,15.3,58.8,15.7z M65,22.4l3.5,2.4L68.4,25l-3.7-2.5L63.2,23
				c0,0.1,0,0.1,0,0.2c0,0.1,0,0.1,0,0.2l-0.1,0.2h0c-0.2,0.3-0.5,0.5-0.8,0.5c-0.3,0-0.6-0.2-0.8-0.4l-0.1-0.2
				c0-0.1-0.1-0.2-0.1-0.3c0-0.1,0-0.2,0.1-0.3l0.1-0.2c0-0.1,0.1-0.1,0.2-0.2l-0.4-0.6l0.2-0.1l0.4,0.5c0.1,0,0.2-0.1,0.3-0.1v-0.6
				c-0.2,0-0.3-0.1-0.4-0.2l-0.2-0.2c-0.1-0.2-0.2-0.4-0.2-0.6c0,0,0-0.1,0-0.1l-0.7-0.2l-0.2,0.1l-0.2-0.2L60,20.3l0.1-0.2l-2-3
				c-0.2,0.1-0.4,0.1-0.6,0.1c-0.4,0-0.8-0.2-1.1-0.6l-2,1l-0.1-0.2l2-1c-0.1-0.1-0.1-0.3-0.1-0.5c0-0.1,0-0.2,0-0.3l0.1-0.2
				c0-0.1,0.1-0.2,0.2-0.3l0.2-0.2c0.2-0.1,0.4-0.2,0.7-0.3h0.3c0.1,0,0.1,0,0.1,0l0-0.1l-0.2-0.1l0.1-0.2l0.2,0.1l0.7-2l-0.1-0.1
				l0.2-0.2l0.3-0.8l0.2,0.1l-0.3,1l2.3,2.4c0.1-0.1,0.3-0.2,0.5-0.3l0.2-0.1c0.1,0,0.3-0.1,0.4-0.1c0.4,0,0.8,0.2,1.1,0.4l2.7-2.7
				l0.2,0.2l-2.6,2.7l3.2-2.4l0.2,0.2l-3.3,2.5c0.2,0.3,0.3,0.6,0.3,0.9c0,0.3-0.1,0.6-0.2,0.9l4.3,2.9L68,19.8l-4.3-2.9
				c-0.3,0.4-0.7,0.6-1.2,0.6v2.2c0.4,0.1,0.7,0.4,0.8,0.8h4.5v0.3h-4.5c0,0.1,0,0.2-0.1,0.3l1.6,1.1l0.2-0.1L65,22.4z"/>
			<path class="st0" d="M68.6,77.5l0-0.1l0-0.2L68.6,77.5z M61.2,72.3l-2.9-4.2c-0.1,0-0.2,0.1-0.3,0.1l1.8,7.1c0.1,0,0.1,0,0.2,0
				c0.1,0,0.2,0,0.3,0L61.2,72.3z M68.8,62.9L68,66l1.1-3.2c-0.1,0-0.1-0.1-0.1-0.1L68.8,62.9z M66.9,62.9
				C66.9,62.9,66.8,62.9,66.9,62.9l-0.2,0.3L66.9,62.9z M67,63.5v-0.3l-0.3,0.4C66.8,63.5,66.9,63.5,67,63.5z M67.4,67.6l-0.1-1.1v1
				C67.3,67.6,67.3,67.6,67.4,67.6z M67.6,51.1l-0.2-0.3c-0.1,0-0.1,0-0.2,0v0.6c0.1,0,0.1,0,0.2,0L67.6,51.1z M67.8,80.7l-0.6-0.3
				l1.4,2L67.8,80.7z M68.1,73.9l-0.4-3c-0.1,0-0.1,0.1-0.2,0.1L68.1,73.9z M68.3,52.5l-0.5-1l-0.1,0.1c0.2,0.2,0.3,0.4,0.3,0.7
				c0,0.1,0,0.1,0,0.2L68.3,52.5z M67.7,50.8l0.1-0.3l0,0c0,0.1-0.1,0.1-0.2,0.1L67.7,50.8z M67.6,66.8l0.9-3.6l-0.6,0.6
				c0.1,0.2,0.2,0.4,0.2,0.6c0,0.4-0.3,0.8-0.7,0.9L67.6,66.8z M66.8,80.2l-5.6-2.9l7.7,5.9c0,0,0,0,0,0L66.8,80.2z M61.3,72
				l0.1-0.2l-1.7-2.1L61.3,72z M66.4,79.7l-3.9-5.6l-1.6,1.6c0.2,0.2,0.3,0.5,0.3,0.8c0,0.2,0,0.3-0.1,0.4L66.4,79.7z M62.5,73.7
				l0.3-0.3l-0.5-0.6l-0.2,0.3L62.5,73.7z M63,71L63,70.9c0,0-0.1,0-0.1,0l-0.7,1.4l0.1,0.1L63,71z M63.8,72.5l-0.6-1.2l-0.8,1.3
				l0.6,0.7L63.8,72.5z M63.8,68.3l0.4-0.8l-0.6,0.6c0,0,0.1,0.1,0.1,0.1L63.8,68.3z M65.9,76.8l-2-4.1l-0.7,0.7L65.9,76.8z
				 M61.6,72.9l-0.2-0.3l-0.8,2.3L61.6,72.9z M61.8,73.1L61.8,73.1l-0.3,0.5L61.8,73.1z M61.9,72.3L61.6,72l-0.1,0.3l0.3,0.4
				L61.9,72.3z M62.4,73.9L62,73.4l-1.3,2.2c0,0,0,0,0,0L62.4,73.9z M62,72.6l-0.1,0.3l0,0.1L62,72.6L62,72.6z M62,72.1l0.5-1.1
				c-0.1,0-0.1,0-0.2,0c-0.1,0-0.3,0-0.4-0.1l-0.2,0.7L62,72.1z M67.4,63.5l0.7-1.4H68c-0.1,0.4-0.4,0.7-0.8,0.8v0.6
				C67.3,63.5,67.4,63.5,67.4,63.5z M68.3,54.4C68.3,54.4,68.3,54.4,68.3,54.4l-0.7-1.2l0.4,1.2L68.3,54.4z M66.4,77.9L63,73.7
				L62.7,74l4.2,6l0.7,0.3L66.4,77.9z M65.8,64.4l0.3-0.6l-0.6,0.9l0.1,0L65.8,64.4z M66.2,64.3L66,64.5l0,0.1l0.2-0.1
				c0,0,0-0.1,0-0.1C66.2,64.4,66.2,64.3,66.2,64.3z M66.2,64.8l-0.4,0.1l-0.6,1.3l1.2-1.2C66.3,64.9,66.3,64.9,66.2,64.8z
				 M60.7,68.6l-2-1c-0.1,0.1-0.1,0.2-0.2,0.3l2.9,3.6l0.2-0.6c-0.6-0.3-1.1-0.9-1.1-1.6C60.6,69,60.6,68.8,60.7,68.6z M58.8,66.1
				l7.5-3.8c0-0.1-0.1-0.2-0.1-0.3c0-0.4,0.2-0.7,0.5-0.8l-0.8-2.6l-7.2,7.3C58.7,66,58.7,66,58.8,66.1z M61.3,67.9l-2.4-0.6
				c0,0,0,0,0,0.1l2,1C61,68.2,61.1,68.1,61.3,67.9z M64,72.3L64,72.3L64,72.3L64,72.3z M64.3,53.8l-0.1-0.4l-0.8,0.3L64.3,53.8z
				 M64.2,69.2l0.2-0.4L64,68.6l0,0.1C64,68.9,64,69,64,69.2H64.2z M65.8,58.3l-1.4-4.2l-1.6-0.2l-8.8,3c0,0.1,0,0.2,0,0.3
				c0,0.4-0.2,0.8-0.6,1.1l3.6,7.3c0.2-0.1,0.3-0.1,0.5-0.1c0.4,0,0.7,0.1,0.9,0.3L65.8,58.3z M65.4,69.4h-1.1l-0.9,1.5l0.7,1.2
				l1.7-1.7C65.6,70.1,65.4,69.8,65.4,69.4z M67.7,54.6l-3.1-0.4l1.3,4l2.2-2.2L67.7,54.6z M64.6,53.9l3.1,0.4l-0.4-1.1
				c-0.1,0-0.1,0-0.2,0c-0.4,0-0.7-0.2-0.8-0.5l-1.9,0.6L64.6,53.9z M65.4,69l-0.7-0.2l-0.2,0.4h0.9C65.4,69.1,65.4,69,65.4,69z
				 M63.2,67.8l1.8-2.7L59,66.6c0,0.1,0,0.2,0,0.2c0,0.1,0,0.2,0,0.2l2.6,0.7c0.2-0.1,0.5-0.2,0.8-0.2
				C62.6,67.6,62.9,67.6,63.2,67.8z M64.8,68.6l0.7,0.2c0.2-0.6,0.8-1.1,1.5-1.2v-2.2c-0.1,0-0.2,0-0.2-0.1L64.8,68.6z M66.5,65.3
				l-1.6,1.7l-0.7,1.5l0.4,0.1L66.5,65.3z M64.6,66.8l0.6-1.1l-1.7,2.2L64.6,66.8z M65.3,65L65,65.5L65.3,65L65.3,65z M65.1,64.8
				l1.4-2.1c-0.1,0-0.1-0.1-0.1-0.2l-7.5,3.8c0,0,0,0,0,0.1L65.1,64.8z M68.7,79.8L67.3,71c0,0-0.1,0-0.2,0c-0.4,0-0.8-0.2-1.1-0.4
				l-1.7,1.7L68.7,79.8z M68.2,80.9l0.5,0.9l0.6,1.1c0,0,0,0,0,0l-0.1-0.7c-0.2-0.1-0.4-0.3-0.5-0.5c-0.1-0.1-0.1-0.3-0.1-0.4
				c0-0.1,0-0.2,0.1-0.3L68.2,80.9z M68.8,80.8l-1.7-2.1l0.9,1.8L68.8,80.8C68.8,80.9,68.8,80.8,68.8,80.8z M68.2,61.9l0.2-0.4
				l-0.3,0.1L68,61.8c0,0,0,0,0,0.1C68,61.9,68.2,61.9,68.2,61.9z M68.4,55.7l0.2-0.2c-0.2-0.2-0.3-0.5-0.3-0.8c0,0,0,0,0-0.1
				l-0.2,0L68.4,55.7z M68.6,62.1h-0.2l-0.7,1.5c0,0,0,0,0,0l0.9-0.9l0.1-0.3C68.6,62.3,68.6,62.2,68.6,62.1z M68.4,54.1
				c0-0.1,0.1-0.1,0.1-0.1l-0.6-0.6L68.4,54.1z M68.8,53.6l-0.4-0.8l-0.5-0.2c0,0.1-0.1,0.1-0.1,0.1l0.9,0.9
				C68.8,53.7,68.8,53.7,68.8,53.6z M67.3,61.1l1.3-3.9l-0.3-1l-2.2,2.2l0.9,2.7c0.1,0,0.1,0,0.2,0C67.2,61.1,67.2,61.1,67.3,61.1z
				 M68.5,56l0.3,0.8l0.3-0.9c-0.1,0-0.2-0.1-0.3-0.2L68.5,56z M68.5,61.9L68.5,61.9c0.1-0.3,0.2-0.5,0.4-0.6l0-0.1l-0.2,0.1
				L68.5,61.9z M68.5,80.1l-4.5-7.5l0,0l2.5,5.2L68.5,80.1z M71.2,60.1C71.2,60.1,71.2,60.1,71.2,60.1l-0.4,0.1L70.3,61L71.2,60.1z
				 M69.4,61.1L69.4,61.1l-0.1,0l0,0.1C69.3,61.1,69.3,61.1,69.4,61.1z M69.4,53.5v-0.3L68.8,53l0.3,0.5
				C69.2,53.5,69.3,53.5,69.4,53.5z M70.9,57.8l-0.9-1.9c-0.1,0-0.2,0.1-0.3,0.1L70.9,57.8z M69.9,61.2l0.4-0.7l-0.7,0.4v0.2
				C69.7,61.1,69.8,61.1,69.9,61.2z M69.6,60.6l1-0.5l0.2-0.4v-0.3H71c0-0.2,0.1-0.4,0.3-0.6l-0.4-0.6l-0.2-0.2l0,0l-1.1-1.7v2.3
				h-0.3V56c0,0-0.1,0-0.1,0l-0.4,1.2l0.5,1.5l-0.2,0.1l-0.4-1.2l-1.2,3.6c0.1,0,0.1,0.1,0.1,0.1l0.2,0.2c0,0,0,0,0,0l0.1-0.1
				l0.3-0.5l0.2,0.2l0,0l0.1-0.1l0.1-0.3l0.2,0.1l0.1,0l0-0.2l0.3,0l0,0v-0.1L69.6,60.6z M71.4,60.3l-1.1,1.1
				c0.1,0.2,0.2,0.4,0.2,0.6c0,0.5-0.4,0.9-0.9,0.9c-0.1,0-0.1,0-0.2,0l-1.6,4.8c0.6,0.3,1.1,0.9,1.1,1.6c0,0.6-0.3,1.1-0.7,1.4
				l1.4,9.8c0,0,0,0,0,0c0.5,0,0.9,0.4,0.9,0.9c0,0.5-0.4,0.9-0.9,0.9c0,0,0,0-0.1,0l0.1,0.6c0.5,0,0.9,0.4,0.9,0.9
				c0,0.5-0.4,0.9-0.9,0.9c-0.5,0-0.9-0.4-0.9-0.9c0-0.2,0-0.3,0.1-0.5l-7.9-6c-0.2,0.2-0.5,0.4-0.9,0.4c-0.7,0-1.2-0.6-1.2-1.2
				c0-0.5,0.3-1,0.8-1.2l-1.8-7.1c-0.1,0-0.1,0-0.2,0c-0.8,0-1.5-0.7-1.5-1.5c0-0.5,0.3-1,0.7-1.2l-3.6-7.3
				c-0.1,0.1-0.3,0.1-0.4,0.1c-0.7,0-1.3-0.6-1.3-1.3c0-0.5,0.3-1,0.8-1.2v0l0.2-0.1c0,0,0.1,0,0.1,0h0.3c0,0,0,0,0,0l0.7-2.7
				l0.2,0.1L53.2,56c0.3,0.1,0.6,0.4,0.7,0.7l8.4-2.8L54,52.6l0-0.3l8.7,1.3l1.3-0.4l-0.7-2.1l0.2-0.1l0.7,2.1l1.9-0.6
				c0-0.1,0-0.1,0-0.2c0-0.1,0-0.2,0-0.2l0.1-0.2h0c0.1-0.2,0.4-0.4,0.7-0.5v-0.6c-0.5-0.1-0.8-0.5-0.8-0.9c0-0.5,0.4-0.9,0.9-0.9
				c0.1,0,0.1,0,0.2,0l0.2,0.1v0c0.1,0,0.1,0.1,0.1,0.1l0.9-0.9l0.2,0.2L68.1,49l0.3-0.2l0.1,0.2L68,49.4c0.1,0.1,0.1,0.3,0.1,0.4
				c0,0.1,0,0.3-0.1,0.4l0,0l0.2,0.1l0,0l0,0l1-1.5l0.2,0.1l-1,1.5l1,0.7l-0.1,0.2l-1-0.7l-0.3,0.5l0.7,1.4l0.7,0.2v-1.2h0.3V53
				l3.1,1l-0.1,0.2l-3-1v0.2c0.6,0.1,1.1,0.5,1.1,1.1h1.8v0.3h-1.8c0,0.4-0.3,0.7-0.6,0.9l1,2l1.9-1.9l0.2,0.2l-1.9,2l0.3,0.6
				l1.5-2.2l0.2,0.1l-1.4,2.1c0,0,0,0,0,0c0.1,0,0.2,0,0.3,0.1l0,0l0.2,0.1c0.2,0.2,0.4,0.4,0.4,0.8c0,0.5-0.4,0.9-0.9,0.9
				C71.7,60.5,71.5,60.4,71.4,60.3z"/>
			<path class="st0" d="M51.9,51.3c0.2-0.1,0.4-0.2,0.7-0.3h0.3c0.1,0,0.2,0,0.3,0.1l1.3-2.7l0.2,0.1l-1.3,2.7
				c0.2,0.1,0.4,0.4,0.5,0.6l0.3,0.1L54,52.3l0,0.3l0,0l-0.2,0.7l-0.2-0.1c-0.2,0.2-0.4,0.3-0.7,0.3v2.4h-0.3v-2.4
				c-0.6-0.1-1.1-0.5-1.1-1.1h-0.2v-0.3h0.2c0-0.2,0.1-0.4,0.2-0.5l-0.7-0.6l0.2-0.2l0.3,0.2l0.2-0.2L51.9,51.3z"/>
			<path class="st0" d="M51.5,49.4c0.1,0.1,0.1,0.3,0.1,0.5c0,0.3-0.1,0.6-0.3,0.8l0.2,0.2l-0.2,0.2l-0.2-0.3c0,0,0,0,0,0l-0.2,0.2
				L50.9,51l-0.2,0.1l0,0c-0.1,0-0.2,0-0.3,0c-0.5,0-1-0.3-1.2-0.8L49.1,50c0-0.1,0-0.1,0-0.2s0-0.1,0-0.2l-2.3-1.8l0.2-0.2l2.3,1.7
				c0,0,0-0.1,0.1-0.1l-2.3-1.6l0.1-0.2l2.3,1.6c0.1-0.1,0.1-0.1,0.2-0.2l0.2-0.1c0.2-0.1,0.4-0.1,0.6-0.1c0.3,0,0.6,0.1,0.8,0.3
				L52,48l0.2,0.2L51.3,49c0,0,0.1,0.1,0.1,0.1l1.1-0.5l0.1,0.2L51.5,49.4z"/>
			<path class="st0" d="M44.4,5.5c0.2-0.4,0.6-0.7,1.1-0.7c0.7,0,1.3,0.6,1.3,1.3c0,0.2,0,0.3-0.1,0.5l2.4,1.2l0.2-0.1l0.1,0.2
				l-0.1,0.2l-0.2-0.1L49,8.2l-0.1-0.2l-2.2-1.1c0,0-0.1,0.1-0.1,0.1l0,0l-0.2,0.2l0.7,1.1l-0.2,0.1l-0.7-1.1
				c-0.2,0.1-0.4,0.1-0.6,0.1c-0.3,0-0.6-0.1-0.8-0.3l-5.7,5.7l-0.2-0.2l5.7-5.7c-0.2-0.2-0.3-0.4-0.3-0.7V6c0-0.1,0-0.1,0-0.2
				l-2.9-1l0.1-0.2l0.1-0.2L44.4,5.5z"/>
			<path class="st0" d="M53.6,47.5c-0.1,0.4-0.4,0.7-0.8,0.8v0.1l1.4-0.7c0-0.1,0-0.1,0-0.2H53.6z M53.7,36.1l0.6,0.6l-0.2-0.3
				L53.7,36.1z M55,46.5v-1.2l-1.5,1.6c0.1,0.1,0.2,0.3,0.2,0.4h0.6C54.3,46.9,54.6,46.6,55,46.5z M58.1,39.1l-1.8-1.2
				c0,0.1,0,0.2-0.1,0.3L58.1,39.1z M63.2,50.6L60.4,42c-0.2,0-0.3,0.1-0.5,0.1c-0.3,0-0.7-0.1-0.9-0.2l-3.2,4.9
				c0.2,0.2,0.3,0.4,0.3,0.7c0,0.1,0,0.2,0,0.2L63.2,50.6z M58.2,39.4l-2-1c-0.2,0.3-0.5,0.5-0.9,0.6v5.7l3.2-3.3
				c-0.3-0.3-0.5-0.8-0.5-1.3C58,39.9,58.1,39.6,58.2,39.4z M61.4,39l1.7-1.1h-6.3l1.7,1.1c0.4-0.5,0.9-0.7,1.5-0.7
				C60.5,38.2,61.1,38.5,61.4,39z M63.5,37.9l-1.8,1.2l1.8-0.9C63.5,38.1,63.5,38,63.5,37.9z M58.8,41.7
				C58.7,41.6,58.7,41.6,58.8,41.7L55.3,45v1.5c0.1,0,0.2,0,0.3,0.1L58.8,41.7z M65.2,38.9C65,38.9,64.9,39,64.7,39
				c-0.4,0-0.8-0.2-1.1-0.6l-2,1c0.1,0.2,0.2,0.5,0.2,0.8c0,0.1,0,0.2,0,0.3l4.7,1.2L65.2,38.9z M45.3,41.3c0,0,0.1,0,0.1,0h0.3
				c0,0,0.1,0,0.1,0l1.2-3.5l0.2,0.1l-1.1,3.5c0.4,0.2,0.8,0.6,0.8,1.2c0,0.2-0.1,0.4-0.2,0.6l5.4,3.6c0.2-0.2,0.4-0.3,0.7-0.3
				c0.2,0,0.4,0.1,0.6,0.2l1.7-1.7v-6c-0.6-0.1-1.1-0.5-1.1-1.1v-0.3c0,0,0-0.1,0-0.2l0.1-0.2c0-0.1,0.1-0.2,0.2-0.3l-0.6-0.6
				c-0.2,0.2-0.5,0.3-0.8,0.3c-0.5,0-0.9-0.3-1.1-0.7l-0.1-0.2c0,0,0-0.1,0-0.2v-0.3c0-0.1,0-0.1,0-0.2l0.1-0.2
				c0.1-0.2,0.3-0.4,0.5-0.5l0.2-0.1c0.1,0,0.2-0.1,0.3-0.1l-0.2-0.3l0.2-0.1v-2.4h0.3V34h0c0.6,0.1,1.1,0.6,1.1,1.3
				c0,0.1,0,0.3-0.1,0.4l0.3,0.5l0.3,0.2l0.2-0.1l0.1,0.2c0.1,0,0.2,0,0.3,0c0.7,0,1.2,0.5,1.3,1.1h7.1c0.1-0.6,0.6-1.1,1.3-1.1
				c0.1,0,0.2,0,0.4,0.1l0.1-0.1l0.1,0.2c0.1,0,0.1,0.1,0.1,0.1l0.6-0.6l0.2,0.2l-0.6,0.6c0.2,0.2,0.3,0.5,0.3,0.8
				c0,0.1,0,0.2,0,0.3l-0.1,0.2c0,0.1-0.1,0.2-0.2,0.3l3,3.1l-0.2,0.2l-3-3.1c0,0-0.1,0.1-0.1,0.1l1.5,3l1.5,0.4l-0.1,0.2L67,42.1
				l1.5,3.1l0.5-1.4l0.2,0.1l-0.5,1.7l0.1,0.2l-0.2,0.1L67.5,49l-0.2-0.1l1.1-3.4L66.7,42l-4.9-1.3c-0.2,0.5-0.6,1-1.1,1.2l2.9,8.8
				l2.8,1.1L66.2,52l-2.6-1l-0.2,0.1l-0.1-0.2l-7.4-3c-0.2,0.3-0.5,0.5-0.8,0.5c0,0-0.1,0-0.1,0l-0.9,3.5l-0.3-0.1l0.8-3.3l-0.2-0.1
				l0.1-0.2c-0.1-0.1-0.2-0.1-0.2-0.2l-1.5,0.8V51h-0.3v-2.2l-0.1-0.2l0.1-0.1v-0.2c-0.2,0-0.3-0.1-0.4-0.2L52,48
				c-0.1-0.2-0.2-0.3-0.2-0.6c0-0.1,0-0.3,0.1-0.4l-5.4-3.6c-0.1,0.1-0.1,0.1-0.2,0.2l3.4,5.2l-0.2,0.1l-3.4-5.2
				c-0.2,0.1-0.4,0.1-0.6,0.1c-0.2,0-0.3,0-0.4-0.1l-0.2-0.1c0,0-0.1-0.1-0.1-0.1l-0.2-0.2c-0.2-0.2-0.3-0.5-0.3-0.8
				c0-0.5,0.3-1,0.8-1.2v0L45.3,41.3z"/>
			<path class="st0" d="M49.3,11.6l-1.1-2.2c-0.1,0-0.2,0-0.3,0c0,0,0,0,0,0L49.3,11.6z M51.1,12.9c0,0,0.1,0.1,0.1,0.1l1.7-0.6
				l-1.8-0.9c-0.1,0.1-0.2,0.2-0.4,0.3L51.1,12.9z M50.5,10.1c0.2,0,0.3,0.1,0.4,0.2l0.5-0.5l-0.3-0.3l-0.3-0.1
				c-0.1,0-0.2,0.1-0.3,0.1V10.1z M50.5,12.5c0.1,0,0.2,0,0.3,0.1l-0.2-0.7c0,0,0,0,0,0V12.5z M54.4,14.6l0.1-0.2
				c-0.3-0.2-0.5-0.5-0.6-0.9h-2.6l0,0.1L54.4,14.6z M54.5,15l-0.7,1.5l0.9-1.4L54.5,15z M53.9,13.3c0-0.1,0-0.2,0.1-0.3l-0.7-0.4
				l-1.9,0.7c0,0,0,0,0,0H53.9z M54.3,10l-0.4-0.1l-0.1,0L54.3,10z M54.1,12.6l-0.2-0.2l-0.1,0L54.1,12.6z M55.8,10.3L56,9.2
				l-1.7,0.6L55.8,10.3z M56.2,12.8l0.5-0.8l-0.6,0.6C56.1,12.7,56.2,12.7,56.2,12.8z M56.2,10.9L56.2,10.9l-0.3-0.1l0,0.1
				C55.9,10.9,56.2,10.9,56.2,10.9z M54.9,14.8l0.1-0.1c-0.1,0-0.2,0-0.3-0.1l-0.1,0.1L54.9,14.8z M55.3,12.2l0.1-0.3l-1.2,0.4
				l0.2,0.2c0.2-0.2,0.5-0.3,0.8-0.3C55.2,12.1,55.2,12.2,55.3,12.2z M55.5,11.5l0.1-0.4H53l0.9,0.9L55.5,11.5z M55.8,11.7l-0.2,0.1
				l-0.1,0.5c0,0,0,0,0,0L55.8,11.7z M56.1,11.1h-0.3l-0.1,0.3l0.2-0.1L56.1,11.1z M56.3,11.2l0.3-0.1c0,0,0,0,0,0h-0.2L56.3,11.2z
				 M56.6,8.7h-0.2l0,0.1L56.6,8.7C56.6,8.7,56.6,8.7,56.6,8.7z M56.7,9l-0.4,0.1L56,10.3l0.4,0.1L57,9.3C56.9,9.2,56.8,9.1,56.7,9z
				 M57,5.4c-0.2-0.1-0.4-0.2-0.6-0.3L53,8.4h3.2L57,5.4z M57.2,9.4l-0.6,1.1l0,0c0.1-0.3,0.4-0.5,0.7-0.5V9.5
				C57.3,9.5,57.3,9.4,57.2,9.4z M57.2,5.4l-0.7,3h0.1C56.7,8,57,7.7,57.4,7.6V5.4C57.3,5.4,57.3,5.4,57.2,5.4z M56.8,11.6
				c0,0-0.1-0.1-0.1-0.1l-0.5,0.2l-0.4,0.8c0,0,0.1,0.1,0.1,0.1L56.8,11.6z M57.1,11.8L56.3,13c0,0.1,0.1,0.2,0.1,0.4
				c0,0.1,0,0.2,0,0.3l1,0.4v-2.1C57.3,11.9,57.2,11.9,57.1,11.8z M63.9,10L60.7,9c0,0.1-0.1,0.2-0.2,0.2L63.9,10z M65.9,10.9
				C65.9,10.8,65.9,10.8,65.9,10.9l-5.5-1.5l0.5,1.5H65.9z M59,8.4c0-0.3,0.2-0.5,0.4-0.6l-1.2-2.5c-0.2,0.1-0.3,0.1-0.5,0.1v2.2
				c0.4,0.1,0.7,0.4,0.8,0.8H59z M59,8.8c0,0,0-0.1,0-0.1h-0.4L59,8.8z M59,10.9l0.5-1.5c-0.1,0-0.1-0.1-0.1-0.1l-1.1,1.1
				c0.1,0.1,0.2,0.3,0.2,0.4L59,10.9L59,10.9z M68.6,8.3l-9.5-3.9c-0.2,0.3-0.4,0.6-0.7,0.7l1.2,2.5c0.1,0,0.2,0,0.3,0
				c0.5,0,0.9,0.3,0.9,0.8L68.6,8.3C68.6,8.4,68.6,8.4,68.6,8.3z M58.1,10.2l1.1-1.1c0,0,0,0,0,0l-0.8-0.2c-0.1,0.3-0.4,0.5-0.7,0.6
				v0.6C57.8,10.1,58,10.1,58.1,10.2z M59.8,9.5l-0.5,1.4h1.2l-0.5-1.4c-0.1,0-0.1,0-0.2,0S59.8,9.5,59.8,9.5z M60.8,8.7l5.1,1.7
				c0.2-0.4,0.6-0.7,1.1-0.7c0.3,0,0.6,0.1,0.8,0.3l0.9-0.9c-0.1-0.1-0.2-0.3-0.2-0.4L60.8,8.7C60.8,8.7,60.8,8.7,60.8,8.7z
				 M52,16.5C52,16.5,52,16.5,52,16.5l-0.9-2.6c-0.1,0.1-0.2,0.2-0.3,0.3L52,16.5z M53.5,9.8l-1.4-0.5L52,9.5l1.4,0.4L53.5,9.8z
				 M52.8,8.7l-0.4,0.4l1.6,0.5l2.2-0.7l0.1-0.2H52.8z M52.3,16.4c0.2,0,0.3-0.1,0.5-0.1c0.3,0,0.5,0.1,0.7,0.1l0.8-1.6l-2.8-1
				L52.3,16.4z M53.4,10.1l-1.1,0.4l0.4,0.4h2.8l0-0.2L53.4,10.1z M52.7,8.4l3.5-3.6c0,0,0,0-0.1-0.1l-5,3.4c0,0.1,0.1,0.2,0.1,0.3
				L52.7,8.4L52.7,8.4z M50,10.1l-1.1-0.7l0.8,0.8C49.8,10.2,49.9,10.1,50,10.1z M48.8,9l1.4,1V9.5c-0.3,0-0.5-0.2-0.6-0.4L48.8,9
				C48.8,8.9,48.8,8.9,48.8,9z M49,8.7l0.5,0.1c0,0,0-0.1,0-0.1H49z M48.5,9.3l1,2.1l0.6,1.1c0.1,0,0.1,0,0.2,0v-0.6
				c-0.3,0-0.6-0.2-0.7-0.5c-0.1-0.1-0.1-0.3-0.1-0.4c0-0.2,0.1-0.4,0.2-0.6L48.5,9.3C48.5,9.3,48.5,9.3,48.5,9.3z M51.9,10.3
				L51.5,10l-0.5,0.5c0,0,0.1,0.1,0.1,0.2L51.9,10.3z M51.9,9.2L51.2,9c0,0.1-0.1,0.1-0.1,0.1l0.1,0.1l0.5,0.1L51.9,9.2z M53.2,12.3
				l-1.8-1.2h-0.2c0,0.1,0,0.1,0,0.2L53.2,12.3L53.2,12.3z M51.6,10.9h0.9l-0.3-0.3l-0.7,0.2L51.6,10.9z M52.7,11.1H52l1.6,1.1
				l0.1,0L52.7,11.1z M53,10l-1.1-0.3l-0.1,0.1l0.5,0.5L53,10z M51.2,8.7L52.1,9l0.3-0.3L51.2,8.7C51.3,8.7,51.3,8.7,51.2,8.7z
				 M72.1,9.5c-0.1,0-0.1,0-0.2,0c0,0,0,0-0.1,0l-0.1,0.6l0.9,0.7L72.1,9.5z M71,8.9c0-0.1,0-0.1,0-0.2h-0.6c0,0.1-0.1,0.2-0.1,0.3
				l0.2,0.1L71,8.9z M71.5,9.9l0.1-0.5c-0.1,0-0.3-0.1-0.3-0.2l-0.3,0.3L71.5,9.9z M77.3,16.6c-0.1-0.2-0.2-0.5-0.2-0.7
				c0-0.4,0.1-0.8,0.3-1.1l-4.3-3.2l2.3,5.9L77.3,16.6z M69.4,19v-8.3l-1.1,0.8c-0.1,0.3-0.4,0.6-0.7,0.7l1.7,6.8
				C69.3,19,69.3,19,69.4,19z M69.4,9.7V9.5c-0.2,0-0.3-0.1-0.4-0.2l-0.9,0.9c0,0,0.1,0.1,0.1,0.1L69.4,9.7z M69.4,10.3V10l-1.1,0.5
				c0.1,0.1,0.1,0.3,0.1,0.5c0,0,0,0.1,0,0.1L69.4,10.3z M69.7,19l1.7-8.8l-0.7-0.6l-1.1,0.8L69.7,19C69.7,19,69.7,19,69.7,19z
				 M70,19c0.4,0.1,0.8,0.4,1,0.8l4.3-2.2l-2.5-6.4l-1.1-0.9L70,19z M70.2,9.3L70.2,9.3c-0.2,0.1-0.4,0.2-0.6,0.2v0.1L70.2,9.3z
				 M70.5,9.5L70.5,9.5l-0.9,0.4v0.3L70.5,9.5z M77.7,14.6C77.7,14.6,77.7,14.6,77.7,14.6l-5.2-5.3c0,0-0.1,0-0.1,0.1l0.7,1.7
				L77.7,14.6z M79.1,17.8c-0.3,0-0.5-0.1-0.7-0.1l-0.8,1.6l-0.2-0.1l0.8-1.6c-0.3-0.2-0.5-0.4-0.7-0.7l-1.8,0.9l0.5,1.3L76,19.1
				l-0.5-1.3L71.1,20c0.1,0.2,0.1,0.4,0.1,0.5H75v0.3h-3.7c0,0.4-0.2,0.7-0.4,1l1.5,1.6l-0.2,0.2L70.6,22c-0.1,0.1-0.3,0.2-0.5,0.3
				l0.7,2.2l-0.2,0.1l-0.7-2.2c-0.1,0-0.2,0-0.3,0v1.9h-0.3v-1.9c-0.7,0-1.2-0.5-1.5-1.1l-2.9,1l-0.1-0.2l2.9-1c0-0.1,0-0.2-0.1-0.3
				v-0.3c0-0.3,0.1-0.5,0.2-0.7l0.1-0.2c0.2-0.3,0.5-0.5,0.8-0.6l-1.7-6.8c0,0,0,0,0,0L67,12.4l-0.2-0.2c-0.2,0-0.4-0.1-0.5-0.3
				l-0.2-0.2c-0.2-0.2-0.3-0.4-0.3-0.7h-5l1,3.1l-0.2,0.1l-1-3.1h-1.4l0,0.1l-0.2-0.1h-0.5c0,0.2-0.1,0.3-0.2,0.4l0.4,0.4l-0.2,0.2
				l-0.4-0.4c-0.1,0.1-0.3,0.2-0.4,0.2v2.2l0.1,0l-0.1,0.2v0.2h-0.3v-0.3l-1.1-0.4c0,0.1-0.1,0.2-0.2,0.3l0.6,0.6L56.6,15l-0.6-0.6
				c-0.2,0.1-0.4,0.2-0.7,0.3l-0.1,0.2l1.3,0.4l-0.1,0.2L55,15.1l-1.1,1.6c0.2,0.1,0.4,0.3,0.5,0.5l0.1,0.2c0.1,0.2,0.2,0.5,0.2,0.8
				c0,0.1,0,0.2,0,0.3l5.5,1.4L60,20.3l-5.5-1.4c0,0.1,0,0.1-0.1,0.2l6.2,3.1l0.5-0.5l-0.7-1.1l0.2-0.1l0.7,1l0.2-0.2l0.2,0.2
				l-0.2,0.2l0,0l-0.2,0.1l-0.4,0.4l0.6,0.3l-0.1,0.2l-0.7-0.3l-0.1,0.1l-0.2-0.2l-6.1-3.1c-0.1,0.2-0.3,0.4-0.5,0.5l2.7,4.1
				L56.4,24l-2.7-4.1c-0.3,0.2-0.6,0.2-0.9,0.2c-0.3,0-0.5-0.1-0.7-0.1l-0.8,1.6L51,21.5l0.8-1.6c-0.4-0.2-0.8-0.7-0.9-1.1l-9.2,1.9
				c0,0,0,0,0,0.1c0,0.2-0.1,0.4-0.2,0.6l0.9,0.9l-0.2,0.2l-0.9-0.9c-0.2,0.1-0.3,0.2-0.6,0.2c-0.3,0-0.5-0.1-0.7-0.3L40,21.4
				l1.6,0.8l-0.1,0.2l-1.8-0.9l-0.1,0.1l-0.1-0.2l0.1-0.2l0.1,0.1l0.2-0.1c0-0.1-0.1-0.2-0.1-0.3h-0.6v-0.3h0.6
				c0-0.3,0.2-0.5,0.4-0.6l-0.4-0.8l0.2-0.1l0.2-0.1l0.3,0.9c0.1,0,0.1,0,0.2,0c0.4,0,0.7,0.3,0.9,0.6l9.2-1.9c0-0.1,0-0.2,0-0.3
				c0-0.2,0-0.3,0.1-0.5l-11.7-4l0.1-0.2L51,17.5c0.2-0.4,0.4-0.7,0.8-0.9l-1.1-2.3c-0.1,0-0.2,0.1-0.3,0.1c-0.5,0-0.9-0.4-0.9-0.9
				c0-0.3,0.1-0.5,0.3-0.7l-2.2-3.3C47.2,9.2,47,8.9,47,8.6l-0.2-0.2l0.2-0.1c0-0.1,0.1-0.2,0.1-0.2l-0.8-0.8L46.6,7l0.8,0.8
				c0.2-0.1,0.3-0.2,0.5-0.2c0.3,0,0.6,0.2,0.8,0.4l0.2-0.1L49,8.2l-0.2,0.1c0,0.1,0,0.1,0,0.2h0.6c0-0.1,0-0.1,0-0.2l-0.2-0.1
				l0.1-0.2L49.6,8c0.2-0.2,0.4-0.4,0.8-0.4c0.3,0,0.5,0.1,0.7,0.3l4.7-3.2l-6.3,3.2l-0.1-0.2l6.6-3.3c-0.1-0.2-0.1-0.4-0.1-0.7
				c0,0,0,0,0,0l-21-2.1l0-0.3l21,2.1c0.1-0.8,0.9-1.4,1.7-1.4c1,0,1.8,0.8,1.8,1.7c0,0.2,0,0.4-0.1,0.5l9.5,3.9
				c0.2-0.3,0.5-0.5,0.8-0.5c0.5,0,0.9,0.3,0.9,0.8H71c0.1-0.5,0.4-0.8,0.9-0.8c0.5,0,0.9,0.4,0.9,0.9c0,0.2-0.1,0.4-0.2,0.6
				l5.2,5.3c0.3-0.3,0.8-0.5,1.3-0.5c1.1,0,1.9,0.9,1.9,1.9c0,0.3-0.1,0.5-0.2,0.7l2,1l-0.1,0.2l-2-1c-0.1,0.2-0.3,0.4-0.5,0.5
				l1,1.6l-0.2,0.1l-0.9-1.4l0.7,1.5l0.2-0.1l0.1,0.2L81,19.4l0.1,0.1l-0.2,0.1l-0.1-0.2l0,0l-0.1-0.2l-0.8-1.6
				C79.6,17.7,79.4,17.8,79.1,17.8z"/>
			<path class="st0" d="M38.2,4.9c-0.2,0-0.5-0.1-0.7-0.3l-0.6,0.6l-0.2-0.2l0.6-0.6c-0.1-0.1-0.2-0.2-0.2-0.4l-1.8,0.5l-0.1-0.2
				l1.8-0.5c0-0.1,0-0.1,0-0.2c0-0.2,0-0.3,0.1-0.5l-0.9-0.5l0.1-0.2L37.3,3c0,0,0,0,0.1-0.1l0.1-0.2l0.1,0c0.2-0.2,0.5-0.3,0.8-0.3
				c0.7,0,1.2,0.5,1.3,1.1l2,0.8l-0.1,0.2l-1.9-0.8c0,0,0,0.1,0,0.1l1.9,0.6l-0.1,0.2l-1.9-0.6c-0.2,0.4-0.6,0.7-1,0.7v1h-0.3
				C38.2,6,38.2,4.9,38.2,4.9z"/>
			<path class="st0" d="M38.3,21.6c-0.2,0-0.3-0.1-0.4-0.1l-0.1,0l-2.9,3l-0.2-0.2l2.8-2.9l-0.7-0.2l0.1-0.2l0.6,0.2
				c0-0.1-0.1-0.2-0.1-0.3h-0.6v-0.3h0.6c0.1-0.4,0.4-0.7,0.8-0.8h0.3c0.4,0.1,0.7,0.4,0.8,0.8v0.3c0,0.1,0,0.1,0,0.2l0.4,0.2
				l-0.1,0.2l-0.4-0.2c-0.1,0.1-0.2,0.2-0.3,0.3l0.2,0.1l-0.1,0.2L38.3,21.6z"/>
			<path class="st0" d="M37.8,49.5c0,0.1,0,0.2,0,0.3c0,0.3-0.1,0.5-0.2,0.7l-0.1,0.2h0c-0.3,0.6-0.9,0.9-1.6,0.9
				c-1.1,0-1.9-0.9-1.9-1.9c0-0.2,0-0.3,0.1-0.5l0.1-0.2c0.2-0.4,0.4-0.7,0.8-0.9v0l0.2-0.1c0.2-0.1,0.4-0.1,0.6-0.1h0.3
				c0.1,0,0.2,0,0.2,0l-0.2-0.2l0.2-0.2l0.6,0.6c0.2,0.1,0.4,0.3,0.6,0.5l1-0.7l0.1,0.2l-1,0.7c0,0,0,0,0,0.1l0.4,0.4L37.8,49.5z"/>
			<path class="st0" d="M33.9,43.8l0.1-0.1l0.1,0.2c0.1,0,0.1,0.1,0.1,0.1l0.6-0.6l0.2,0.2l-0.6,0.6c0.2,0.2,0.3,0.5,0.3,0.8
				c0,0.3-0.1,0.6-0.3,0.8l1.3,1.3l-0.2,0.2L34.4,46c0,0-0.1,0.1-0.1,0.1l1,2L35,48.2l-1-2c-0.1,0.1-0.3,0.1-0.4,0.1
				c-0.4,0-0.8-0.2-1.1-0.6l-0.1-0.2c0-0.1-0.1-0.2-0.1-0.3L32.2,45l0.1-0.1c0-0.3,0.1-0.5,0.3-0.7l0.2-0.2c0,0,0.1-0.1,0.1-0.1
				l-1.3-2.6l0.2-0.1l1.3,2.6c0.1-0.1,0.3-0.1,0.4-0.1C33.7,43.7,33.8,43.8,33.9,43.8z"/>
			<path class="st0" d="M41.2,50.4l1.4-4.3c-0.2-0.1-0.3-0.2-0.5-0.3l-3.4,2.3l1.2,2.4c0.2-0.1,0.5-0.1,0.7-0.1
				C40.9,50.4,41.1,50.4,41.2,50.4z M41.5,50.5l2.1-4.3c-0.1,0.1-0.3,0.1-0.5,0.1c-0.1,0-0.2,0-0.3,0L41.5,50.5
				C41.5,50.5,41.5,50.5,41.5,50.5z M42,45.6c-0.1-0.2-0.2-0.4-0.2-0.6c0-0.1,0-0.2,0-0.3l-4.8-1.6c-0.1,0.2-0.3,0.4-0.5,0.5
				l2.1,4.2L42,45.6z M44.4,44.7l0.5-1l0.2,0.1l-0.7,1.4c0,0.1-0.1,0.3-0.1,0.4l2.8,1.9l-0.1,0.2l-0.2,0.2l-2.7-2c0,0,0,0,0,0
				l-2.3,4.8c0.4,0.2,0.7,0.6,0.9,1.1l6.5-1.6l0.1,0.2l-6.5,1.6c0,0.1,0,0.1,0,0.2H51l-0.3-1.1l0.2-0.1l0.4,1.1h0.1v0.3l1.1,3.5
				L52.2,56L51,52.4h-8.4c-0.1,1-0.9,1.8-1.9,1.8c-1.1,0-1.9-0.9-1.9-1.9c0-0.3,0.1-0.5,0.2-0.7l-1.4-0.7l0.1-0.2l1.4,0.7
				c0.1-0.1,0.1-0.2,0.2-0.3l-1.5-1.5l0.2-0.2l1.5,1.5c0.1-0.1,0.2-0.1,0.3-0.2l-1.2-2.4L38.5,48l0,0l-2.1-4.2
				c-0.1,0-0.2,0.1-0.3,0.1v3.6l0.2,0.2l-0.2,0.2v0.2h-0.3v-0.5l-0.2-0.2l0.2-0.2v-3.3c-0.3,0-0.5-0.1-0.7-0.3l0,0L35,43.4l-0.8,0.5
				l-0.1-0.2l0.8-0.5c-0.1-0.2-0.2-0.4-0.2-0.6c0-0.2,0-0.3,0.1-0.5l0.1-0.2c0.2-0.3,0.5-0.5,0.9-0.6v-5.1c-0.2,0-0.3-0.1-0.4-0.2
				l-0.2-0.2c-0.1-0.2-0.2-0.4-0.2-0.6c0-0.1,0-0.1,0-0.2l-4.7-1.6l0.1-0.2l4.7,1.6c0.1-0.3,0.4-0.5,0.7-0.5h0.3c0.1,0,0.1,0,0.2,0
				l0,0l0.2,0.1c0.2,0.1,0.4,0.4,0.4,0.6h5v0.3h-5c-0.1,0.4-0.4,0.7-0.8,0.8v5.1c0.6,0.1,1.1,0.6,1.1,1.3c0,0.1,0,0.2,0,0.3l4.8,1.6
				c0.2-0.4,0.6-0.7,1.1-0.7c0.1,0,0.2,0,0.3,0l1.2-3.6l-0.1-0.3l0.2-0.1l0.4-1.3l0.2,0.1l-0.5,1.6l0.4,1.2L45,41.4l-0.3-0.9
				l-1.1,3.3c0.1,0,0.2,0.1,0.3,0.2l0.6-0.6l0.2,0.2l-0.6,0.6C44.2,44.3,44.3,44.5,44.4,44.7z"/>
			<path class="st0" d="M32.4,20.6H35v0.3h-2.6c0,0.4-0.3,0.7-0.6,0.9l-0.2,0.1c-0.1,0.1-0.3,0.1-0.4,0.1c-0.1,0-0.2,0-0.3,0
				l-0.2,0.6l1.7,1.8l-0.2,0.2l-1.6-1.7l-0.2-0.1l0-0.1l0,0l-0.2-0.1l0-0.1l-0.1-0.1l0.2-0.2l0.2-0.3c0,0-0.1-0.1-0.1-0.1l-0.2-0.2
				c-0.2-0.2-0.3-0.4-0.3-0.7h-0.2v-0.3h0.2c0-0.4,0.3-0.7,0.6-0.9v0l0.2-0.1c0.1,0,0.3-0.1,0.4-0.1c0.4,0,0.7,0.2,1,0.5l4.8-3.3
				l0.1,0.2l-4.8,3.3C32.4,20.2,32.4,20.4,32.4,20.6z"/>
			<path class="st0" d="M29.6,14.4c0.5,0.3,0.9,0.9,0.9,1.5c0,0.6-0.3,1.2-0.9,1.5l1.1,2.2l-0.2,0.1l-1.1-2.2
				c-0.2,0.1-0.3,0.1-0.5,0.1v2.2h-0.3v-2.2c-0.8-0.1-1.5-0.7-1.6-1.6v-0.3c0-0.1,0-0.2,0-0.3L25.8,15l0.1-0.2l1.3,0.4
				c0.2-0.4,0.5-0.7,0.9-0.9l-0.3-0.9l0.2-0.1l0.3,0.9c0.1,0,0.2,0,0.3,0h0.3c0.2,0,0.4,0.1,0.5,0.1l0.8-1.6l0.2,0.1L29.6,14.4z"/>
			<path class="st0" d="M37.8,16.6c-0.1,0-0.1-0.1-0.2-0.2l-0.2,0.2L36.7,19L37.8,16.6z M38.2,14.3L38,15c0.1,0,0.2-0.1,0.3-0.1h0.3
				c0.1,0,0.2,0,0.3,0.1l-0.2-0.7l0.2-0.1l0.3,1c0.1,0.2,0.2,0.3,0.2,0.6c0,0,0,0,0,0l1,3.1L40.1,19l-0.9-2.7
				c-0.1,0.1-0.2,0.2-0.3,0.3l1.2,2.4l-0.2,0.1l-1.2-2.4c-0.1,0-0.1,0-0.2,0v1.5v1.5h-0.3v-1.5v-1.5c-0.1,0-0.1,0-0.2,0l-1.6,3.2
				c0.2,0.1,0.4,0.4,0.4,0.6v0.3c0,0,0,0,0,0l-0.1,0.2h0c-0.2,0.3-0.5,0.5-0.8,0.5c-0.1,0-0.2,0-0.3-0.1l-1.2,2.5
				c0.1,0,0.2,0.1,0.2,0.2l0.2,0.2c0,0,0,0,0.1,0.1h0l0.1,0.2c0.1,0.3,0.2,0.5,0.2,0.9c0,0.4-0.2,0.8-0.4,1.1l-0.2,0.2
				c-0.1,0.1-0.3,0.2-0.5,0.3l1.6,4.8L35.5,32L34,27.2c-0.1,0-0.3,0.1-0.4,0.1c-0.6,0-1.2-0.3-1.5-0.8h0L32,26.2
				c-0.1-0.2-0.1-0.3-0.1-0.5h-2.2c0,0.1-0.1,0.3-0.2,0.4l-0.2,0.7L29,26.8l0.1-0.4c-0.1,0-0.2,0.1-0.3,0.1v0.3h-0.3v-0.3
				c-0.4-0.1-0.7-0.4-0.8-0.8h-0.6v-0.3h0.6c0,0,0,0,0,0l-0.6-0.2l0.1-0.2l0.6,0.2c0.1-0.3,0.4-0.5,0.7-0.5h0.3c0.1,0,0.1,0,0.2,0
				l1.1-2.3l0.2,0.1l-1.1,2.3c0.1,0.1,0.2,0.2,0.3,0.3l0.8-2.4l0.2,0.1l-0.9,2.7h2.1c0-0.4,0.2-0.7,0.4-1l0.2-0.2
				c0.1-0.1,0.2-0.1,0.2-0.2l-1.1-2.2l0.2-0.1l1.1,2.2c0.2-0.1,0.4-0.1,0.6-0.1c0.2,0,0.4,0,0.6,0.1l1.2-2.5
				c-0.2-0.1-0.4-0.4-0.4-0.6v-0.3c0.1-0.5,0.4-0.8,0.9-0.8c0.1,0,0.1,0,0.2,0l1-2.9l-0.1-0.2l0.3-0.2l0.2-0.6c0,0,0,0,0,0
				c0-0.1,0-0.3,0.1-0.4l0,0l0.1-0.2l0.3-0.9L38.2,14.3z"/>
			<path class="st0" d="M46.1,32.1L46.1,32.1l-0.3-0.8c-0.1,0-0.1,0-0.2,0v0.6C45.8,31.9,46,32,46.1,32.1z M46.3,32.3L46.3,32.3
				L46.3,32.3L46.3,32.3C46.3,32.3,46.3,32.3,46.3,32.3z M46.5,33l0.3,0.1l-0.3-0.6l0,0c0,0.1,0.1,0.2,0.1,0.3
				C46.5,32.9,46.5,33,46.5,33z M47.6,30.5h-1.2c0,0.3-0.2,0.5-0.4,0.6l0.3,0.6L47.6,30.5z M46.7,35.1c0-0.3,0.1-0.5,0.3-0.7
				l-0.9-0.9c-0.1,0.1-0.3,0.2-0.4,0.2v1.4L46.7,35.1L46.7,35.1z M47,36.1c-0.2-0.2-0.3-0.4-0.3-0.7h-1v2L47,36.1z M47,37.6l0.1-0.3
				l-0.8,0.3H47z M47.2,34.3c0,0,0.1-0.1,0.1-0.1l-0.4-0.8l-0.5-0.2c0,0.1-0.1,0.1-0.1,0.1L47.2,34.3z M47.2,37l0.2-0.6
				c-0.1,0-0.2-0.1-0.3-0.2L46,37.4L47.2,37z M48.4,34l-1.2-0.4l0.3,0.5c0.1,0,0.3-0.1,0.4-0.1c0.2,0,0.3,0,0.4,0.1L48.4,34z
				 M46.6,32.2l2.9-1.5c0-0.1,0-0.1,0-0.2H48l-1.5,1.5L46.6,32.2z M49.6,28.6C49.6,28.5,49.6,28.5,49.6,28.6l-3.2,1.6
				c0,0.1,0,0.1,0,0.2h1.4L49.6,28.6z M49.8,31.2c-0.1-0.1-0.2-0.1-0.2-0.2l-2.9,1.5l0.4,0.8l1.5,0.5L49.8,31.2z M50.5,29.5
				c0.2,0,0.4,0.1,0.6,0.3l0.6-0.4l-0.7-0.7c-0.1,0.1-0.3,0.2-0.4,0.2V29.5z M51.3,31.7l1.1-1.1h-1.2c0,0.2-0.1,0.4-0.3,0.6
				L51.3,31.7z M48.7,34.3l0.2-0.2L48.7,34l-0.1,0.2C48.7,34.2,48.7,34.3,48.7,34.3z M49.9,36.1l-0.8-0.3c-0.2,0.4-0.6,0.7-1.2,0.7
				c-0.1,0-0.2,0-0.3,0l-0.1,0.4L49.9,36.1z M49.1,33.9L51,32l-0.4-0.7c-0.1,0-0.2,0-0.3,0c-0.1,0-0.2,0-0.3,0l-1.2,2.5L49.1,33.9z
				 M49.8,28.7l-1.5,1.5h1.2c0.1-0.4,0.4-0.7,0.8-0.8v-0.6C50,28.9,49.9,28.8,49.8,28.7z M39.1,31.4c-0.2,0.2-0.5,0.3-0.8,0.3
				c-0.2,0-0.3,0-0.4-0.1l-0.7,1.5l4.8,1.6c0-0.1,0.1-0.2,0.2-0.3L39.1,31.4z M51.6,27.4l-0.9-2.6c-0.1,0-0.2,0-0.3,0v2.2
				c0.3,0,0.6,0.2,0.7,0.5L51.6,27.4z M52.4,30.3l-0.7-0.7L51.2,30c0,0.1,0.1,0.2,0.1,0.3H52.4z M51.8,29.3l0.4-0.2l-0.5-1.4
				l-0.4,0.1c0,0.1,0,0.1,0,0.2c0,0.2-0.1,0.4-0.2,0.6L51.8,29.3z M52.2,29.3L52,29.5l0.5,0.5L52.2,29.3z M45.4,31.3
				c-0.1,0-0.1,0-0.2,0l-0.6,1.1l0,0c0.1-0.3,0.4-0.5,0.7-0.5V31.3z M37.7,31.5c0,0-0.1-0.1-0.1-0.1l-0.9,0.9
				c0.1,0.2,0.2,0.4,0.2,0.6c0,0.1,0,0.1,0,0.2l0,0L37.7,31.5z M45.1,29.6l-1.7-5.2c-0.1,0-0.2,0-0.3,0c-0.2,0-0.4-0.1-0.6-0.1
				l-3.4,5.2c0.3,0.2,0.4,0.5,0.5,0.8h5C44.7,30,44.9,29.7,45.1,29.6z M43.6,34.1l0.7-1.5l-4.8-1.6c0,0.1-0.1,0.2-0.2,0.3l3,3.1
				c0.2-0.2,0.5-0.3,0.8-0.3C43.3,34,43.4,34,43.6,34.1z M43.9,34.3l0.9-0.9c-0.1-0.2-0.2-0.4-0.2-0.6c0-0.1,0-0.1,0-0.2l0,0
				l-0.8,1.5C43.9,34.2,43.9,34.3,43.9,34.3z M49.5,27.6l-5.4-3.6c-0.1,0.1-0.3,0.3-0.5,0.3l1.7,5.2c0.1,0,0.1,0,0.2,0
				c0.3,0,0.6,0.2,0.8,0.4l3.1-1.6c0-0.1-0.1-0.2-0.1-0.3C49.4,27.8,49.4,27.7,49.5,27.6z M45.4,35.4h-1c0,0.3-0.1,0.5-0.3,0.7
				l1.3,1.3C45.4,37.4,45.4,35.4,45.4,35.4z M44.4,35.1h1v-1.4c-0.2,0-0.3-0.1-0.4-0.2l-0.9,0.9C44.3,34.7,44.4,34.9,44.4,35.1z
				 M48.6,23.3h-4.2c0,0.2-0.1,0.3-0.1,0.5l5.4,3.6c0.1-0.2,0.3-0.3,0.6-0.3v-2.2C49.3,24.8,48.7,24.1,48.6,23.3z M44.4,23h4.2
				c0.1-0.9,0.8-1.6,1.7-1.6c0.2,0,0.5,0,0.7,0.1l0.2,0.1l9.5,0.9c0.5,0.3-8.6,0-8.6,0.6c0,0.2,0,0.3-0.1,0.4l3.7,1.3l-0.1,0.2
				l-3.7-1.3c-0.2,0.4-0.5,0.8-0.9,0.9l0.9,2.6l0.1,0.2l0.4,1.3l3.5-2.4l0.1,0.2l-3.6,2.4l0.3,1l0.2,0.2l-0.1,0.1l1.9,5.8l-0.2,0.1
				l-1.7-5.1h-0.3v-0.5l-1.1,1.2l1.1,1.7l-0.2,0.1l-1-1.5l0.9,1.9l-0.2,0.1l-1-1.9L49.4,34l2.2,0.7L51.5,35l-2.3-0.8l-0.3,0.3
				c0.2,0.2,0.3,0.4,0.3,0.7h2.3v0.3h-2.3c0,0.1,0,0.1,0,0.2l1.2,0.4l1.2-0.4l0.1,0.2l-0.8,0.3l3.2,1.1l-0.1,0.2l-3.6-1.2l-2.9,1
				l-0.1,0.4h6.6v0.3h-6.6l0,0.1L47,37.8h-1.3v3.5h-0.3v-2.8l-0.2-0.1l0.2-0.7l-1.5-1.5c-0.1,0.1-0.2,0.1-0.3,0.2l1.1,3.3l-0.2,0.1
				l-1.1-3.3c-0.1,0-0.2,0-0.3,0c-0.7,0-1.2-0.5-1.3-1.1v-0.3c0-0.1,0-0.1,0-0.2l-4.9-1.6l-0.6,1.1l-0.2-0.1l0.5-1.1l0,0
				c-0.1,0.3-0.4,0.5-0.7,0.5v0.6h-0.3v-0.6c-0.4-0.1-0.7-0.4-0.8-0.8v-0.3c0-0.1,0-0.2,0.1-0.3l-5.4-3.6c-0.2,0.2-0.5,0.4-0.8,0.4
				v1.9h-0.3v-1.9c-0.6-0.1-1.1-0.6-1.1-1.3c0-0.3,0.1-0.6,0.3-0.8L28,27c0.2-0.1,0.4-0.2,0.7-0.3h0.3c0,0,0.1,0,0.1,0l0.2,0.1v0
				c0.2,0.1,0.4,0.3,0.5,0.5l2.1-1.1l0.1,0.2l-2.1,1.1C30,27.7,30,27.8,30,28c0,0.2-0.1,0.4-0.2,0.6l5.4,3.6
				c0.1-0.1,0.2-0.2,0.3-0.2v0l0.2-0.1c0.1,0,0.1,0,0.2,0c0.2,0,0.4,0.1,0.6,0.2l0.9-0.9c-0.2-0.2-0.3-0.5-0.3-0.8
				c0-0.3,0.1-0.6,0.3-0.8l-2.7-2.7l0.2-0.2l2.7,2.7c0.2-0.2,0.5-0.3,0.8-0.3c0.2,0,0.4,0.1,0.6,0.1l3.4-5.2c-0.3-0.2-0.5-0.6-0.5-1
				c0-0.1,0-0.2,0-0.3l-2.7-0.9l-4.1,2.8l-0.1-0.2l4-2.7l0.1-0.2l0.2,0.1l0.3-0.2l0.1,0.2l-0.2,0.1l2,0.7l0.1-0.2l0.5,0.2
				c0,0,0.1-0.1,0.1-0.1l0.2-0.2c0.2-0.2,0.5-0.3,0.8-0.3C43.8,21.9,44.3,22.4,44.4,23z M44.5,32.3l0.6-1.1
				c-0.2-0.1-0.4-0.4-0.4-0.6h-5c0,0.1,0,0.1,0,0.2L44.5,32.3z"/>
			<path class="st0" d="M30.5,32.7H35V33h-4.5c0,0.1,0,0.2-0.1,0.3l-0.1,0.2c-0.2,0.6-0.8,1-1.5,1.1v3.7h-0.3v-3.7
				c-0.6,0-1.1-0.4-1.4-0.8l-1.7,0.9l-0.1-0.2l1.7-0.9c0,0,0-0.1,0-0.1L25,33.9L25,33.7l2.1-0.5c0-0.1,0-0.2,0-0.3
				c0-0.2,0-0.4,0.1-0.5l-9.2-3.7l0.1-0.2l9.2,3.7c0.3-0.5,0.8-0.9,1.4-1h0.3C29.8,31.2,30.4,31.9,30.5,32.7z"/>
			<path class="st0" d="M34.9,41.9l-0.1,0.2l-2.5-1.3c-0.1,0.2-0.2,0.3-0.4,0.4l-0.2,0.1c-0.1,0.1-0.3,0.1-0.4,0.1
				c-0.1,0-0.2,0-0.3,0l-0.2,0.6l2.1,2.1l-0.2,0.2l-2-2l-0.2-0.1l0-0.1l-0.1-0.1l0.2-0.2l0.1-0.4c-0.4-0.2-0.7-0.6-0.7-1h-0.2V40
				h0.2c0-0.2,0.1-0.3,0.1-0.5l-1.2-0.8v0.5h-0.3v-0.6l-0.1-0.1l0.1-0.2h0.3v0.2l1.3,0.9c0.2-0.3,0.6-0.5,1-0.5
				c0.3,0,0.6,0.1,0.8,0.3l3.3-3.3l0.2,0.2l-3.3,3.3c0.2,0.2,0.3,0.5,0.3,0.8c0,0.2,0,0.3-0.1,0.5L34.9,41.9z"/>
			<path class="st0" d="M30,6h2.2l0.2-0.7L30,6C30,6,30,6,30,6z M29.4,7.7l-0.2-0.4c-0.1,0-0.2,0.1-0.3,0.1v0.4L29.4,7.7z M33.1,2.5
				c-0.1,0-0.3-0.1-0.4-0.2l-3,3.1c0.1,0.1,0.2,0.2,0.2,0.4L32.5,5L33.1,2.5z M35.1,4.7l-2.4,0.6L32.5,6h2.2v0.3h-2.2l-0.2,0.7
				l-0.2-0.1l0.1-0.6H30c0,0.4-0.3,0.7-0.6,0.9l0.2,0.4l0.1,0l0.1,0.2l0.7,1.4l-0.2,0.1l-0.7-1.4L28.9,8v1.6l0.6,0.3l-0.1,0.2
				L28.9,10h-0.3V9.8l-0.1-0.1l0.1-0.2V8.1l-0.1-0.2l0.1,0V7.4c-0.2,0-0.5-0.1-0.7-0.3l-0.2-0.2c-0.2-0.2-0.3-0.5-0.3-0.8
				c0-0.7,0.6-1.3,1.3-1.3c0.3,0,0.6,0.1,0.8,0.3l3-3.1c-0.2-0.2-0.3-0.5-0.3-0.8c0-0.7,0.6-1.3,1.3-1.3c0.7,0,1.3,0.6,1.3,1.3
				l0,0.3c0,0,0,0.1,0,0.1l2.7,1.1l-0.1,0.2l-1-0.4l-0.1,0.2l-1.6-0.8c-0.1,0.2-0.2,0.3-0.4,0.4l1,2l0.1,0l0.1,0.2l0.2,0.4l-0.2,0.1
				L35.1,4.7z M34,2.4c-0.1,0.1-0.3,0.1-0.4,0.1c-0.1,0-0.1,0-0.2,0L32.8,5L35,4.4L34,2.4z"/>
			<path class="st0" d="M30.6,47.9l3.6,1.2l-0.1,0.2l-3.6-1.2c-0.3,0.7-1,1.2-1.8,1.2c-1.1,0-1.9-0.9-1.9-1.9c0-0.2,0-0.4,0.1-0.6
				L16,41.1l0.1-0.2L27,46.6c0.3-0.6,0.9-1,1.6-1.1V41c-0.4-0.1-0.8-0.4-0.8-0.9c0-0.1,0-0.2,0.1-0.3l0,0l0.1-0.2c0,0,0,0,0,0
				l-2.9-3l0.2-0.2l2.9,3c0.1-0.1,0.3-0.1,0.4-0.2h0.3c0.4,0.1,0.7,0.4,0.8,0.8v0.3c0,0.2-0.1,0.3-0.2,0.4l1,1l-0.2,0.2l-1-1
				C29.2,41,29.1,41,28.9,41v4.5c0.1,0,0.2,0,0.3,0.1l1.1-3.4l0.2,0.1l-1.1,3.4c0.3,0.1,0.6,0.3,0.8,0.6l1.9-1.3l0.1,0.2l-1.8,1.2
				l1.8-0.9l0.1,0.2l-2,1c0.1,0.2,0.2,0.5,0.2,0.8C30.7,47.6,30.7,47.8,30.6,47.9z"/>
			<path class="st0" d="M29.5,11.9c-0.1-0.1-0.1-0.2-0.2-0.4l-0.4,0.1v0.7L29.5,11.9z M36.5,7.3l1.7,5.2c0,0,0,0,0,0V6.3h-1
				C37.2,6.7,36.9,7.1,36.5,7.3z M32.4,9.5L35,6.9c-0.1-0.1-0.2-0.2-0.2-0.4l-2.5,0.6l-0.5,2C32,9.2,32.2,9.4,32.4,9.5z M38.2,14.3
				l-0.2-0.1v0c-0.3-0.2-0.5-0.5-0.5-0.8c0-0.1,0-0.1,0-0.2l-4.5-1.5c0,0.1-0.1,0.2-0.1,0.2l4.8,3.2l-0.1,0.2l-4.8-3.2
				c-0.4,0.4-0.9,0.7-1.5,0.7c-0.3,0-0.5-0.1-0.7-0.1l-0.2-0.1v0c-0.2-0.1-0.4-0.3-0.6-0.5l-0.8,0.5v1.5h-0.3v-1.3l-0.1-0.2l0.1-0.1
				v-0.8l-1,0.3l0.3,1l-0.2,0.1l-0.3-1l-2.1,0.5l-0.1-0.2l2.1-0.5l0.2-0.1l0,0l1.1-0.3V10h0.3v1.4l0.4-0.1c0-0.1,0-0.2,0-0.3
				c0-0.3,0.1-0.5,0.2-0.8l0.1-0.2c0.2-0.3,0.4-0.5,0.7-0.7v0l0.2-0.1c0.2-0.1,0.5-0.1,0.7-0.1c0.1,0,0.2,0,0.3,0l0.5-1.8l-2.2,0.6
				l-0.1-0.2L32,7l0-0.1l0.2,0.1l2.4-0.6c0,0,0,0,0-0.1V6c0-0.4,0.3-0.7,0.6-0.9l0.2-0.1c0.1-0.1,0.3-0.1,0.4-0.1
				c0.3,0,0.6,0.1,0.8,0.3l0.2,0.2c0.2,0.2,0.3,0.4,0.3,0.7h1h0.3h5.8v0.3h-5.8v6.2c0.2,0,0.3,0.1,0.4,0.2l0.2,0.2
				c0.1,0.2,0.2,0.4,0.2,0.6c0,0.1,0,0.1,0,0.2l-0.1,0.2h0c-0.1,0.2-0.2,0.3-0.4,0.4v0l-0.2,0.1c0,0,0,0,0,0v0.6h-0.3L38.2,14.3
				C38.2,14.3,38.2,14.3,38.2,14.3z M37.9,12.6l-1.7-5.2c-0.1,0-0.2,0-0.3,0c-0.3,0-0.6-0.1-0.8-0.3l-2.6,2.6
				c0.3,0.3,0.5,0.8,0.5,1.3c0,0.2,0,0.3-0.1,0.5l4.5,1.5C37.6,12.8,37.8,12.7,37.9,12.6z"/>
			<path class="st0" d="M25.9,24.7l-2.7-0.9l0.1-0.2l3.1,1.1c0.1,0,0.1,0,0.2,0l0,0l0.2,0.1l0,0l0.1-0.1l0.2,0.2l0.1,0l-0.1,0.2
				c0,0.1,0.1,0.2,0.1,0.3v0.3c0,0.2-0.1,0.3-0.2,0.4L28,27l-0.2,0.2l-0.9-0.9c-0.2,0.1-0.3,0.2-0.6,0.2c-0.5,0-0.9-0.4-0.9-0.9
				c0-0.1,0-0.2,0.1-0.3l-2.4-1.2l0.1-0.2l2.4,1.2C25.7,24.9,25.8,24.8,25.9,24.7z"/>
			<path class="st0" d="M27.2,7.6l0.6-0.6L28,7.1l-0.6,0.6c0.1,0.1,0.2,0.2,0.2,0.4l1-0.3l0.1,0.2l-1,0.3c0,0.1,0,0.1,0,0.2
				c0,0.2,0,0.3-0.1,0.5l1.1,0.6l-0.1,0.2l-1.1-0.6c-0.1,0.2-0.3,0.4-0.5,0.5l0.7,2l-0.2,0.1l-0.7-2c-0.1,0-0.2,0-0.3,0
				s-0.2,0-0.3,0l-0.2-0.1c-0.1,0-0.2-0.1-0.3-0.2l-0.2-0.2c-0.2-0.2-0.3-0.5-0.3-0.8c0-0.7,0.6-1.3,1.3-1.3
				C26.7,7.3,26.9,7.4,27.2,7.6z"/>
			<path class="st0" d="M22.4,34.6l-2.2,0.5l-0.1-0.2l2.4-0.6c0.3-0.4,0.8-0.7,1.4-0.7c0.3,0,0.5,0.1,0.8,0.2l0.2-0.1l0.1,0.2
				c0.2,0.1,0.3,0.3,0.4,0.5h0l0.1,0.2c0.1,0.2,0.1,0.4,0.1,0.7c0,0.3-0.1,0.6-0.2,0.9l3.2,2.1l-0.1,0.2l-3.2-2.1c0,0,0,0-0.1,0.1
				l-0.2,0.2C24.8,36.8,24.4,37,24,37c-0.6,0-1.2-0.3-1.5-0.8l-0.6,0.3l-0.1-0.2l0.6-0.3c-0.1-0.2-0.1-0.3-0.1-0.5v-0.3
				C22.3,35,22.3,34.8,22.4,34.6z"/>
			<path class="st0" d="M24.9,12.7l-2,0.5c0,0.1,0,0.1,0,0.2c0,0.1,0,0.2,0,0.3l1.6,0.5L24.9,12.7z M21.7,14.7v1.1h-0.3v-1.1
				c0,0-0.1,0-0.1,0L21,15.7l-0.2-0.1l0.4-1.1c-0.3-0.1-0.5-0.4-0.6-0.6h0l-0.1-0.2c0-0.1,0-0.2,0-0.3c0-0.7,0.6-1.3,1.3-1.3
				c0.3,0,0.6,0.1,0.8,0.3l3-3.1l0.2,0.2l-3,3.1c0.1,0.1,0.2,0.2,0.2,0.4l2.2-0.6l0.9-2.7l0.2,0.1l-0.8,2.6l0.1,0.2l-0.2,0l-0.5,1.7
				l0.7,0.3l-0.1,0.2l-0.8-0.3l-0.2-0.1l-1.6-0.5c0,0.1-0.1,0.2-0.2,0.3l-0.2,0.2C22.2,14.5,22,14.6,21.7,14.7z"/>
			<path class="st0" d="M29.8,21.9l-0.5-0.5c-0.1,0.1-0.3,0.1-0.4,0.2v1.2L29.8,21.9z M22.7,22.6l5.1-1.7c0-0.1,0-0.1,0-0.2
				c0-0.2,0.1-0.4,0.2-0.6l-3.3-3.3c-0.2,0.2-0.5,0.3-0.8,0.3c-0.1,0-0.2,0-0.3,0L22.1,22C22.4,22.1,22.6,22.3,22.7,22.6z
				 M30.4,21.7l-0.2,0.2l0.2,0.2l-0.2,0.2L30,22.1l-1.1,1.1v1.5h-0.3v-1.2l-1.4,1.5L27,24.7l1.6-1.6v-1.5c-0.1,0-0.1,0-0.2,0
				l-1.6,3.2l-0.2-0.1l1.6-3.2c-0.1-0.1-0.2-0.2-0.3-0.4l-5.1,1.7c0,0.1,0,0.2,0,0.3c0,0.1,0,0.2,0,0.3l0.5,0.2l-0.1,0.2l-0.1,0.2
				l-0.5-0.2c-0.2,0.3-0.6,0.6-1.1,0.6c-0.3,0-0.6-0.1-0.8-0.3l-0.2-0.2c-0.1-0.1-0.1-0.2-0.2-0.3h0l-0.1-0.2c0-0.1,0-0.2,0-0.3
				c0-0.1,0-0.1,0-0.2l0.1-0.2c0-0.1,0.1-0.3,0.2-0.4l0.2-0.2c0.2-0.1,0.4-0.2,0.7-0.3h0.3c0,0,0.1,0,0.1,0l1.6-4.9
				c-0.1,0-0.2-0.1-0.3-0.2l-1.3,1.3L21.7,18l1.3-1.3c-0.2-0.2-0.3-0.4-0.3-0.7v-0.3c0-0.3,0.1-0.5,0.3-0.7l-0.6-0.6l0.2-0.2
				l0.6,0.6c0.2-0.2,0.5-0.3,0.8-0.3c0.1,0,0.2,0,0.3,0l0-0.1l0.2,0.1l0,0.1c0.2,0.1,0.3,0.2,0.5,0.3l0.3-0.2l0.1-0.2l0.2,0.1
				l2.2-1.5l0-0.1L28,13l0.5-0.4l0.1,0.2L28,13.2l0,0.1l-0.2,0.1l-2,1.3L25.8,15l-0.2-0.1l-0.5,0.3c0.1,0.1,0.1,0.3,0.1,0.5H27V16
				h-1.8c0,0.3-0.1,0.5-0.3,0.7l3.3,3.3c0.1-0.1,0.3-0.2,0.4-0.2h0.3c0.4,0.1,0.7,0.4,0.8,0.8v0.3c0,0.2-0.1,0.3-0.2,0.4l0.5,0.5
				l0.2-0.2L30.4,21.7z"/>
			<path class="st0" d="M20.2,19.9c0.2,0.2,0.3,0.5,0.3,0.8c0,0.3-0.1,0.6-0.3,0.8l0.6,0.6l-0.2,0.2L20,21.7
				c-0.2,0.2-0.5,0.3-0.8,0.3c-0.1,0-0.2,0-0.3,0l-0.1,0.4l1.6,0.4l-0.1,0.2l-1.6-0.4l0,0l-0.2-0.1l-0.5-0.1l0.1-0.2l0.5,0.1
				l0.1-0.4c-0.1,0-0.2-0.1-0.3-0.2L18,22.1l-0.2-0.2l0.4-0.4c-0.2-0.2-0.3-0.4-0.3-0.7v-0.3c0-0.3,0.1-0.5,0.3-0.7l0.2-0.2
				c0.2-0.2,0.5-0.3,0.8-0.3c0.1,0,0.2,0,0.3,0l1.1-3.5l0.2,0.1l-1.1,3.5c0.1,0,0.2,0.1,0.3,0.2L20.2,19.9z"/>
			<path class="st0" d="M20.2,35.1h2v0.3h-2.2c0,0.1,0,0.1,0,0.2l-0.1,0.2c-0.2,0.2-0.4,0.4-0.8,0.4c-0.2,0-0.4-0.1-0.6-0.2
				l-2.8,2.8l-0.2-0.2l2.8-2.8c-0.1-0.1-0.1-0.2-0.1-0.3l-0.6,0.1l-0.1-0.3l0.2,0v-0.3h0.3L17.7,35l0.1-0.2l0.6,0.2
				c0.1-0.2,0.2-0.4,0.5-0.5v0l0.2-0.1c0.1,0,0.1,0,0.2,0c0.4,0,0.7,0.2,0.9,0.6l0.1,0L20.2,35.1z"/>
			<path class="st0" d="M16.2,26.9c0.2-0.1,0.4-0.1,0.6-0.1c0.1,0,0.2,0,0.3,0l0.2,0.1v0c0.1,0,0.2,0.1,0.3,0.2l3-3.1l0.2,0.2
				l-3,3.1c0.2,0.2,0.3,0.5,0.3,0.8c0,0.1,0,0.2-0.1,0.4l-0.1,0.2h0c-0.1,0.2-0.3,0.4-0.6,0.6l1.7,5.2l-0.2,0.1l-1.7-5.2
				c0,0-0.1,0-0.1,0v0.1h-0.3l-0.3,0l0-0.1c-0.2,0-0.3-0.1-0.4-0.2l-0.4,0.4l-0.2-0.2l0.4-0.4l-0.4,0.3l0,0.1l-0.3,0L15,29l0.1-0.1
				l-0.5-2.2l0.3-0.1l0.5,2.1l0.3-0.2c-0.1-0.2-0.2-0.4-0.2-0.6c0-0.2,0.1-0.5,0.2-0.7L15.3,27l0.2-0.2l0.2-0.2L16,27L16.2,26.9
				L16.2,26.9z"/>
			<path class="st0" d="M21.6,36.3l0.2-0.1l0.1,0.2l6.1,3.1l-0.1,0.2l-6.3-3.2l-5.4,2.7c0.1,0.2,0.2,0.5,0.2,0.8
				c0,0.3-0.1,0.5-0.2,0.8L16,41.1h0c-0.3,0.6-1,0.9-1.7,0.9c-1.1,0-1.9-0.9-1.9-1.9c0-0.2,0-0.3,0.1-0.5l0.1-0.2
				c0-0.1,0-0.1,0.1-0.2l0.1-0.2c0.1-0.2,0.3-0.3,0.4-0.4l0.2-0.1c0.3-0.2,0.6-0.3,1-0.3c0.1,0,0.2,0,0.2,0l0.4-2l0.3,0l-0.4,2
				c0.1,0,0.2,0,0.2,0.1l1.1-2.3l0.2,0.1l-1.1,2.3c0.1,0.1,0.2,0.1,0.3,0.2l0.2,0.2c0.1,0.1,0.2,0.2,0.2,0.3l5.2-2.7l-1.4-0.7
				l0.1-0.2L21.6,36.3z"/>
			<path class="st0" d="M12.6,19.1l0.8-1.6c-0.2-0.1-0.4-0.3-0.6-0.5l-0.1-0.2c-0.2-0.3-0.3-0.6-0.3-1c0-1.1,0.9-1.9,1.9-1.9
				c0.8,0,1.5,0.5,1.8,1.2l4.2-1.4l0.1,0.2l-4.2,1.4c0,0.1,0.1,0.2,0.1,0.4h4.4l0-0.1l0.2,0.1h0.5h0.3h1V16h-1v2l0.2,0.2l-0.2,0.2
				v3.6h-0.3v-3.3l-1.3,1.3L20,19.7l1.5-1.5V16h-0.6l0,0.1L20.6,16h-4.3c0,0.4-0.2,0.8-0.5,1.2l2.6,2.6l-0.2,0.2l-2.6-2.6
				c-0.3,0.3-0.7,0.4-1.1,0.5v2.8h-0.3v-2.8c-0.2,0-0.4-0.1-0.6-0.1l-0.8,1.6L12.6,19.1z"/>
			<path class="st0" d="M14.3,20.8h-0.5c0,0.1,0,0.1,0,0.2l0.6,0.1V20.8z M13.7,20.6h0.5h0.3h3.4v0.3h-3.4v0.4l3.2,0.8l0.1-0.1
				l0.2,0.2l-0.1,0.3l-0.1,0l-0.1,0.1l-0.2-0.2l-3-0.8h-0.3v-0.1l-0.6-0.2c-0.1,0.3-0.3,0.6-0.6,0.8l1.2,1.8L14,24.1l-1-1.5
				l-0.2,0.1l-0.2-0.3c-0.2,0.1-0.4,0.1-0.6,0.1c-0.9,0-1.7-0.7-1.7-1.6v-0.3c0.1-0.9,0.8-1.6,1.7-1.6c0.2,0,0.4,0,0.6,0.1l0.2,0.1
				C13.3,19.5,13.7,20,13.7,20.6z"/>
			<path class="st0" d="M15.9,35.3l-0.4-0.1l-0.1,0.3l0.4-0.1C15.9,35.3,15.9,35.3,15.9,35.3C15.9,35.3,15.9,35.3,15.9,35.3z
				 M16,35.8c0,0-0.1-0.1-0.1-0.2l-0.5,0.1l0,0.2L16,35.8z M16,34.9c0-0.1,0.1-0.2,0.2-0.2l-0.5-0.1l0,0.2L16,34.9z M15.7,34.3
				l0.7,0.2c0,0,0,0,0,0L16,32.6L15.7,34.3z M9,37.1L9,37.1L9,37.1C9,37,9,37.1,9,37.1z M15.1,35.8l-2.7,0.7l2.7-0.5L15.1,35.8z
				 M9.9,37.3l2.9,1.7l-0.1,0.2l-3.1-1.9l-0.5,0.1c0,0.1,0,0.2,0,0.3c0,0.2,0,0.3-0.1,0.5l3.5,1.2l-0.1,0.2L9,38.4
				c-0.3,0.7-1,1.2-1.8,1.2c-1.1,0-1.9-0.9-1.9-1.9c0-0.5,0.2-0.9,0.5-1.3l0.2-0.2c0.3-0.2,0.6-0.4,1-0.5l0.1-0.2l0.4,0.2
				c0.1,0,0.3,0.1,0.4,0.1l0.7-1.4l0.2,0.1l0,0.1L9,34.9l-0.7,1.2c0.1,0,0.1,0.1,0.2,0.1l1.5-1.5l0.2,0.2l-1.5,1.5
				c0,0,0.1,0.1,0.1,0.1L9.5,37l2.3-0.6l0.2-0.1l0,0.1l3.1-0.8l0.1-0.4L11,34.4l0-0.3l4.2,0.7l0.1-0.2l0,0l0-0.2l0-0.3l0.4-2.2
				l-0.6-2.3l-3.5,3.6l-0.2-0.2l3.6-3.7l0-0.2l0.3-0.1l0.2,0.2l-0.1,0.1l0.5,2l0.4-2.2l0.3,0L16.1,32l0.5,2.2v-4.9h0.3v5.1
				c0.3,0,0.5,0.2,0.6,0.4l0.2,0.1L17.7,35c0,0,0,0.1,0,0.1h0.2v0.3h-0.2c0,0,0,0,0,0l0.1,0.3l-0.2,0c-0.2,0.3-0.5,0.5-0.8,0.5
				c-0.1,0-0.2,0-0.3-0.1l0,0L16.3,36c0,0,0,0,0,0l-0.9,0.2l0,0.1l-0.3,0l-2.7,0.5l1.1,1.7l-0.2,0.1l-1.1-1.7L9.9,37.3z"/>
			<path class="st0" d="M10.8,31.3l0.7-1.2L10.8,31.3C10.8,31.3,10.8,31.3,10.8,31.3z M13.2,26.1c-0.1-0.2-0.1-0.3-0.1-0.5
				c0-0.1,0-0.1,0-0.2l-5-3.8c-0.1,0.2-0.3,0.3-0.6,0.3l1.3,6.8L13.2,26.1z M13.2,25.1c0-0.1,0-0.1,0.1-0.1L11,23.4L13.2,25.1z
				 M13.6,26.5c-0.1-0.1-0.1-0.1-0.2-0.2L9,29l0.4,1.9c0.1,0,0.2,0,0.2,0c0.3,0,0.7,0.1,1,0.3L13.6,26.5z M8.7,29.1l-4.2,2.6
				l-0.1-0.2l4.3-2.6L7.3,22c0,0-0.1,0-0.1,0c-0.1,0-0.2,0-0.3-0.1l-0.2-0.1c-0.4-0.2-0.7-0.6-0.7-1.1c0-0.7,0.6-1.3,1.3-1.3
				c0.4,0,0.7,0.2,1,0.5l4.6-3.1l0.1,0.2l-4.6,3.1c0.1,0.1,0.1,0.3,0.1,0.5h1.8v0.3H8.5c0,0.2-0.1,0.3-0.1,0.5l5.1,3.5
				c0.1-0.1,0.2-0.2,0.3-0.3l-0.9-1.9l0.2-0.1l0.9,1.9c0.1,0,0.2-0.1,0.3-0.1L14,24.1l0.2-0.1v-2.4h0.3v2.8v0c0.3,0,0.5,0.1,0.7,0.3
				l2.3-2.3l0.2,0.2l-2.3,2.3c0.1,0.1,0.1,0.2,0.2,0.3l2.3-0.8l0.6-1.8l0.2,0.1l-0.5,1.6l2.2-0.7l0.1,0.2l-2.3,0.8l-0.8,2.4
				l-0.2-0.1l0.7-2.2l-2.2,0.7c0,0.1,0,0.2,0,0.3c0,0.1,0,0.3-0.1,0.4l0.6,0.9L16,27l-0.5-0.8c0,0-0.1,0.1-0.1,0.1l0.2,0.2l-0.2,0.2
				l-0.2-0.2c0,0,0,0,0,0l0.3,0.2L15.3,27l-0.4-0.3c0,0-0.1,0-0.1,0l-0.3,0.1c-0.1,0-0.1,0-0.2,0c-0.2,0-0.4,0-0.5-0.1L11,31.5
				c0,0,0.1,0.1,0.1,0.1L15,29l0.1,0.2l-3.9,2.6c0.2,0.3,0.3,0.6,0.3,1c0,0.1,0,0.2,0,0.3l0.1-0.1l0.2,0.2l3.7,0.9l0,0.3l-2.6-0.7
				l2.5,0.8l-0.1,0.2l-3.8-1.3l-0.1,0.1c-0.1,0.2-0.2,0.3-0.3,0.5l0,0.3l-0.2,0l1.2,1.9l-0.2,0.1l-1.2-1.9c0,0,0,0-0.1,0l-0.4,0.4
				l-0.2-0.2c-0.1,0-0.2,0-0.3,0c-0.2,0-0.3,0-0.5-0.1L9,34.9l-0.2-0.1l0.1-0.1c0,0,0,0,0,0l-0.2-0.1c-0.3-0.2-0.5-0.4-0.6-0.6
				l-0.2,0l0-0.3c-0.1-0.2-0.1-0.4-0.2-0.7v-0.3c0.1-0.8,0.6-1.5,1.4-1.7L8.7,29.1z"/>
			<path class="st0" d="M4.8,33.4c0,0.2-0.1,0.4-0.2,0.6l2.6,1.6L7,35.8l-2.6-1.6c-0.1,0.1-0.1,0.2-0.2,0.3l1.8,1.8l-0.2,0.2L4,34.6
				c-0.4,0.4-1,0.6-1.6,0.6c-1.3,0-2.4-1.1-2.4-2.4c0-1.3,1.1-2.4,2.4-2.4c0.3,0,0.5,0,0.8,0.1l3.5-8.8l0.2,0.1l-3.5,8.8
				c0.4,0.2,0.7,0.5,1,0.8l0.1,0.2c0.2,0.3,0.3,0.6,0.3,1h2.9V33H4.8c0,0,0,0.1,0,0.1l3,0.5l0,0.3L4.8,33.4z"/>
		</g>
	</g>
</g>
</svg>
